<svg width="68" height="68" viewBox="0 0 68 68" fill="none" xmlns="http://www.w3.org/2000/svg">
<g clip-path="url(#clip0_168_31317)">
<path d="M34.3663 54.7824C45.8441 54.7824 55.1486 45.4778 55.1486 34.0001C55.1486 22.5223 45.8441 13.2178 34.3663 13.2178C22.8885 13.2178 13.584 22.5223 13.584 34.0001C13.584 45.4778 22.8885 54.7824 34.3663 54.7824Z" fill="#EDEDED"/>
<path d="M25.9741 49.8317L25.9742 49.8318C26.1242 49.9113 26.2855 49.9485 26.4441 49.9485C26.8037 49.9485 27.1524 49.7539 27.3333 49.4151L27.3337 49.4144L43.1776 19.5278C43.1777 19.5277 43.1777 19.5277 43.1777 19.5277C43.4382 19.0368 43.2501 18.4276 42.7603 18.1682L42.7603 18.1681C42.2689 17.9079 41.6606 18.0948 41.4002 18.5854L41.4001 18.5855L25.5569 48.4715L25.5568 48.4716C25.2966 48.963 25.4835 49.5713 25.9741 49.8317Z" fill="#5B7FFF" stroke="#5B7FFF" stroke-width="0.5"/>
<path d="M31.573 28.2767V28.2766V23.2061C31.573 20.3638 29.2601 18.0518 26.418 18.0518C23.5758 18.0518 21.2637 20.3639 21.2637 23.2061V28.2766C21.2637 31.1195 23.5758 33.4317 26.418 33.4317C29.2603 33.4317 31.5723 31.1188 31.573 28.2767ZM23.2748 23.2061C23.2748 21.4734 24.6853 20.0629 26.418 20.0629C28.1507 20.0629 29.5612 21.4727 29.5612 23.2061V28.2766C29.5612 30.0093 28.1514 31.4198 26.418 31.4198C24.6853 31.4198 23.2748 30.01 23.2748 28.2766V23.2061Z" fill="#5B7FFF" stroke="#5B7FFF" stroke-width="0.5"/>
<path d="M37.1606 44.794C37.1606 47.6369 39.4727 49.949 42.315 49.949C45.1579 49.949 47.47 47.6369 47.47 44.794V39.7234C47.47 36.8805 45.1579 34.5684 42.315 34.5684C39.4727 34.5684 37.1606 36.8805 37.1606 39.7234V44.794ZM39.1725 39.7227C39.1725 37.9899 40.5823 36.5795 42.315 36.5795C44.0476 36.5795 45.4582 37.9907 45.4582 39.7227V44.7932C45.4582 46.5259 44.0476 47.9364 42.315 47.9364C40.5823 47.9364 39.1725 46.526 39.1725 44.7932V39.7227Z" fill="#5B7FFF" stroke="#5B7FFF" stroke-width="0.5"/>
<path d="M50.8566 60.3487L50.8566 60.3486C51.771 57.9966 53.889 56.3077 56.3853 55.9411C58.9849 55.559 60.8617 53.205 60.6566 50.5851C60.4592 48.0687 61.6341 45.6278 63.7245 44.2143C65.9011 42.7414 66.5706 39.8072 65.2488 37.5356L65.4526 37.4169L65.2488 37.5355C63.9803 35.3551 63.9803 32.6456 65.2488 30.4652L65.4582 30.587L65.2488 30.4652C66.5706 28.1935 65.9011 25.2593 63.7245 23.7864C61.6341 22.3722 60.4592 19.9314 60.6566 17.4156C60.8617 14.7958 58.9849 12.4425 56.3852 12.0597C53.8891 11.6922 51.7702 10.0034 50.8566 7.65136L51.0729 7.56734L50.8566 7.65135C49.9054 5.20206 47.1989 3.89616 44.6852 4.67905C42.2776 5.4304 39.6355 4.82805 37.792 3.10594L37.7919 3.10591C35.8715 1.31136 32.861 1.31207 30.9412 3.10591L30.9412 3.10593C29.0969 4.82879 26.457 5.43117 24.0479 4.67904L24.0478 4.67901C21.5388 3.89473 18.827 5.20195 17.8758 7.65135L17.6484 7.56304L17.8758 7.65136C16.9622 10.0034 14.8441 11.6922 12.3479 12.0597C9.7474 12.4425 7.87078 14.7958 8.07728 17.4156L8.07729 17.4156C8.27473 19.9314 7.09895 22.3722 5.00942 23.7864L5.00941 23.7864C2.83278 25.2593 2.16327 28.1935 3.48511 30.4652C4.75431 32.6463 4.75437 35.3558 3.48511 37.5356C2.1633 39.8072 2.83349 42.7414 5.00944 44.2144C7.0998 45.6278 8.27472 48.0687 8.07729 50.5851L7.82806 50.5656L8.07729 50.5851C7.8715 53.205 9.74815 55.5582 12.3479 55.9411C12.3479 55.9411 12.3479 55.9411 12.3479 55.9411L12.3115 56.1884L50.8566 60.3487ZM50.8566 60.3487C49.9062 62.7985 47.1992 64.1038 44.6854 63.3218C42.2777 62.5688 39.6355 63.1712 37.7919 64.8949C35.8722 66.6886 32.8617 66.6887 30.9412 64.8949C29.6216 63.6615 27.8943 63.0028 26.1367 63.0028M50.8566 60.3487L26.1367 63.0028M26.1367 63.0028C25.4371 63.0028 24.7326 63.107 24.0476 63.3218L26.1367 63.0028ZM12.0545 57.9302L12.0545 57.9302C13.8363 58.1922 15.3486 59.3979 16.0006 61.0767L16.2336 60.9862L16.0006 61.0767C17.3341 64.5099 21.1321 66.3406 24.6471 65.2406C26.3655 64.7045 28.2515 65.1349 29.5677 66.364C30.9133 67.6219 32.6404 68.2508 34.3663 68.25C36.0919 68.25 37.8189 67.6219 39.1653 66.3649L39.0112 66.1998L39.1654 66.3649C40.4815 65.1358 42.3666 64.706 44.0859 65.2413C47.6025 66.3407 51.3983 64.51 52.7318 61.0775C53.3845 59.3993 54.8969 58.1929 56.6786 57.931C60.3221 57.3958 62.9492 54.1004 62.6624 50.4282L62.6624 50.4281C62.5214 48.632 63.3606 46.89 64.8524 45.8804C67.9019 43.8166 68.8403 39.7067 66.9873 36.524C66.082 34.9682 66.082 33.0333 66.9873 31.4767C68.8403 28.2932 67.9019 24.1842 64.8524 22.1204C63.3606 21.1107 62.5214 19.3681 62.6624 17.5726L62.6624 17.5726C62.95 13.901 60.3221 10.6057 56.6786 10.0698C54.8967 9.80707 53.3838 8.60132 52.7326 6.92265L52.7325 6.92249C51.3982 3.48985 47.6017 1.66174 44.0853 2.75786L44.085 2.75795C42.3683 3.29541 40.4817 2.86511 39.1647 1.63523C36.4755 -0.878449 32.2591 -0.878346 29.5678 1.63515C28.2516 2.8643 26.3649 3.29471 24.6473 2.75792L24.6471 2.75787C21.1323 1.66174 17.335 3.48906 16.0006 6.92172C15.3478 8.60075 13.8362 9.80709 12.0545 10.069L12.0545 10.069C8.41033 10.6049 5.78239 13.9002 6.07073 17.5719C6.21178 19.3673 5.3725 21.11 3.88069 22.1196L4.02081 22.3267L3.88068 22.1196C0.830428 24.1842 -0.10718 28.2933 1.74509 31.476L1.7451 31.476C2.6511 33.0326 2.6511 34.9667 1.7451 36.5232L1.93791 36.6354L1.74509 36.5232C-0.107186 39.706 0.831192 43.8158 3.88069 45.8796C5.37251 46.8893 6.21178 48.6312 6.07073 50.4274C5.78239 54.0983 8.41036 57.3935 12.0545 57.9302Z" fill="#5B7FFF" stroke="#5B7FFF" stroke-width="0.5"/>
<path d="M12.7016 43.2621L12.7015 43.2619C11.4471 40.3323 10.8109 37.2159 10.8109 33.9998C10.8109 21.0116 21.378 10.4445 34.3662 10.4445C47.3544 10.4445 57.9215 21.0116 57.9215 33.9998C57.9215 46.988 47.3544 57.5551 34.3662 57.5551C28.5249 57.5551 22.9224 55.402 18.59 51.4919C18.1769 51.119 17.542 51.1522 17.17 51.5644C16.7981 51.9766 16.8301 52.6122 17.2425 52.9843C21.945 57.229 28.0265 59.5662 34.3662 59.5662C48.4639 59.5662 59.9334 48.0975 59.9326 33.999C59.9326 19.9013 48.4639 8.43262 34.3662 8.43262C20.2685 8.43262 8.7998 19.9013 8.7998 33.999C8.7998 37.4885 9.49033 40.8713 10.8524 44.0534L10.8526 44.0537C11.071 44.5616 11.6604 44.8037 12.1731 44.5821C12.6839 44.3635 12.9196 43.7724 12.7016 43.2621Z" fill="#5B7FFF" stroke="#5B7FFF" stroke-width="0.5"/>
</g>
<defs>
<clipPath id="clip0_168_31317">
<rect width="68" height="68" fill="white"/>
</clipPath>
</defs>
</svg>
