<svg width="62" height="62" viewBox="0 0 62 62" fill="none" xmlns="http://www.w3.org/2000/svg">
<mask id="path-1-outside-1_14_14499" maskUnits="userSpaceOnUse" x="0" y="0" width="62" height="62" fill="black">
<rect fill="white" width="62" height="62"/>
<path fill-rule="evenodd" clip-rule="evenodd" d="M1.66667 61H38.8033C39.172 61 39.47 60.702 39.47 60.3333C39.47 59.9647 39.172 59.6667 38.8033 59.6667H2.33333V2.33333H16.1913C16.5593 2.33333 16.858 2.03467 16.858 1.66667C16.858 1.29867 16.5593 1 16.1913 1H1.66667C1.29867 1 1 1.29867 1 1.66667V60.3333C1 60.702 1.29867 61 1.66667 61ZM59.6663 23.3933C59.6663 23.7613 59.9643 24.06 60.3329 24.06C60.7016 24.06 60.9996 23.762 60.9996 23.3933V1.66667C60.9996 1.29867 60.7016 1 60.3329 1H39.1427H39.1423C38.7736 1 38.4756 1.29867 38.4756 1.66667C38.4756 1.67529 38.4757 1.68388 38.4761 1.69243V16.626L31.3974 11.3707C31.1614 11.1953 30.8387 11.1953 30.6027 11.3707L23.5247 16.626V2.33333H31.0001C31.3681 2.33333 31.6667 2.03467 31.6667 1.66667C31.6667 1.29867 31.3681 1 31.0001 1H22.8581C22.4901 1 22.1914 1.29867 22.1914 1.66667V17.9513C22.1914 18.2033 22.3334 18.434 22.5587 18.5473C22.7834 18.6607 23.0534 18.638 23.2554 18.4867L31.0001 12.736L38.7454 18.4867C38.8627 18.574 39.0021 18.618 39.1427 18.618C39.2447 18.618 39.3474 18.5947 39.4421 18.5473C39.6674 18.434 39.8094 18.2033 39.8094 17.9513V2.33333H59.6663V23.3933ZM10.321 46.7034H21.3863C21.7543 46.7034 22.053 46.4054 22.053 46.0368C22.053 45.6681 21.7543 45.3701 21.3863 45.3701H10.321C9.95296 45.3701 9.6543 45.6681 9.6543 46.0368C9.6543 46.4054 9.95296 46.7034 10.321 46.7034ZM21.3863 52.7484H10.321C9.95296 52.7484 9.6543 52.4504 9.6543 52.0817C9.6543 51.713 9.95296 51.415 10.321 51.415H21.3863C21.7543 51.415 22.053 51.713 22.053 52.0817C22.053 52.4504 21.7543 52.7484 21.3863 52.7484ZM45.8545 59.8886C46.2598 60.5739 47.0065 60.9999 47.8025 60.9999C48.5985 60.9999 49.3452 60.5739 49.7505 59.8892L51.4972 56.9319L51.5291 56.8779C55.0893 50.8599 58.4474 45.1834 59.6378 42.8072L59.6738 42.7379C60.5538 40.9299 60.9998 38.9879 60.9998 36.9659C60.9998 29.6892 55.0792 23.7686 47.8025 23.7686C40.5252 23.7686 34.6045 29.6886 34.6045 36.9659C34.6045 38.9906 35.0532 40.9372 35.9405 42.7572C37.1101 45.1037 40.5023 50.8387 44.0953 56.9132L44.1052 56.9299L45.8545 59.8886ZM35.9378 36.9659C35.9378 30.4239 41.2605 25.1019 47.8025 25.1019C54.3445 25.1019 59.6665 30.4239 59.6665 36.9659C59.6665 38.7839 59.2658 40.5292 58.4465 42.2092C57.2725 44.5512 53.9098 50.2352 50.3492 56.2526L48.6025 59.2099C48.4358 59.4912 48.1292 59.6666 47.8025 59.6666C47.4752 59.6666 47.1685 59.4912 47.0025 59.2099L45.2532 56.2512L45.2176 56.1911L45.2175 56.1909L45.2172 56.1905C41.6465 50.153 38.2793 44.4595 37.1365 42.1672C36.3412 40.5352 35.9378 38.7852 35.9378 36.9659ZM43.3005 42.4066C44.5598 43.4606 46.1585 44.0412 47.8025 44.0412C51.6712 44.0412 54.8178 40.8932 54.8178 37.0252C54.8178 33.1572 51.6705 30.0092 47.8025 30.0092C43.9345 30.0092 40.7865 33.1566 40.7865 37.0252C40.7865 37.3939 41.0845 37.6919 41.4532 37.6919C41.8218 37.6919 42.1198 37.3939 42.1198 37.0252C42.1198 33.8919 44.6692 31.3426 47.8025 31.3426C50.9358 31.3426 53.4845 33.8919 53.4845 37.0252C53.4845 40.1586 50.9358 42.7079 47.8025 42.7079C46.4712 42.7079 45.1758 42.2379 44.1558 41.3846C43.8738 41.1472 43.4525 41.1859 43.2172 41.4679C42.9812 41.7499 43.0178 42.1706 43.3005 42.4066Z"/>
</mask>
<path fill-rule="evenodd" clip-rule="evenodd" d="M1.66667 61H38.8033C39.172 61 39.47 60.702 39.47 60.3333C39.47 59.9647 39.172 59.6667 38.8033 59.6667H2.33333V2.33333H16.1913C16.5593 2.33333 16.858 2.03467 16.858 1.66667C16.858 1.29867 16.5593 1 16.1913 1H1.66667C1.29867 1 1 1.29867 1 1.66667V60.3333C1 60.702 1.29867 61 1.66667 61ZM59.6663 23.3933C59.6663 23.7613 59.9643 24.06 60.3329 24.06C60.7016 24.06 60.9996 23.762 60.9996 23.3933V1.66667C60.9996 1.29867 60.7016 1 60.3329 1H39.1427H39.1423C38.7736 1 38.4756 1.29867 38.4756 1.66667C38.4756 1.67529 38.4757 1.68388 38.4761 1.69243V16.626L31.3974 11.3707C31.1614 11.1953 30.8387 11.1953 30.6027 11.3707L23.5247 16.626V2.33333H31.0001C31.3681 2.33333 31.6667 2.03467 31.6667 1.66667C31.6667 1.29867 31.3681 1 31.0001 1H22.8581C22.4901 1 22.1914 1.29867 22.1914 1.66667V17.9513C22.1914 18.2033 22.3334 18.434 22.5587 18.5473C22.7834 18.6607 23.0534 18.638 23.2554 18.4867L31.0001 12.736L38.7454 18.4867C38.8627 18.574 39.0021 18.618 39.1427 18.618C39.2447 18.618 39.3474 18.5947 39.4421 18.5473C39.6674 18.434 39.8094 18.2033 39.8094 17.9513V2.33333H59.6663V23.3933ZM10.321 46.7034H21.3863C21.7543 46.7034 22.053 46.4054 22.053 46.0368C22.053 45.6681 21.7543 45.3701 21.3863 45.3701H10.321C9.95296 45.3701 9.6543 45.6681 9.6543 46.0368C9.6543 46.4054 9.95296 46.7034 10.321 46.7034ZM21.3863 52.7484H10.321C9.95296 52.7484 9.6543 52.4504 9.6543 52.0817C9.6543 51.713 9.95296 51.415 10.321 51.415H21.3863C21.7543 51.415 22.053 51.713 22.053 52.0817C22.053 52.4504 21.7543 52.7484 21.3863 52.7484ZM45.8545 59.8886C46.2598 60.5739 47.0065 60.9999 47.8025 60.9999C48.5985 60.9999 49.3452 60.5739 49.7505 59.8892L51.4972 56.9319L51.5291 56.8779C55.0893 50.8599 58.4474 45.1834 59.6378 42.8072L59.6738 42.7379C60.5538 40.9299 60.9998 38.9879 60.9998 36.9659C60.9998 29.6892 55.0792 23.7686 47.8025 23.7686C40.5252 23.7686 34.6045 29.6886 34.6045 36.9659C34.6045 38.9906 35.0532 40.9372 35.9405 42.7572C37.1101 45.1037 40.5023 50.8387 44.0953 56.9132L44.1052 56.9299L45.8545 59.8886ZM35.9378 36.9659C35.9378 30.4239 41.2605 25.1019 47.8025 25.1019C54.3445 25.1019 59.6665 30.4239 59.6665 36.9659C59.6665 38.7839 59.2658 40.5292 58.4465 42.2092C57.2725 44.5512 53.9098 50.2352 50.3492 56.2526L48.6025 59.2099C48.4358 59.4912 48.1292 59.6666 47.8025 59.6666C47.4752 59.6666 47.1685 59.4912 47.0025 59.2099L45.2532 56.2512L45.2176 56.1911L45.2175 56.1909L45.2172 56.1905C41.6465 50.153 38.2793 44.4595 37.1365 42.1672C36.3412 40.5352 35.9378 38.7852 35.9378 36.9659ZM43.3005 42.4066C44.5598 43.4606 46.1585 44.0412 47.8025 44.0412C51.6712 44.0412 54.8178 40.8932 54.8178 37.0252C54.8178 33.1572 51.6705 30.0092 47.8025 30.0092C43.9345 30.0092 40.7865 33.1566 40.7865 37.0252C40.7865 37.3939 41.0845 37.6919 41.4532 37.6919C41.8218 37.6919 42.1198 37.3939 42.1198 37.0252C42.1198 33.8919 44.6692 31.3426 47.8025 31.3426C50.9358 31.3426 53.4845 33.8919 53.4845 37.0252C53.4845 40.1586 50.9358 42.7079 47.8025 42.7079C46.4712 42.7079 45.1758 42.2379 44.1558 41.3846C43.8738 41.1472 43.4525 41.1859 43.2172 41.4679C42.9812 41.7499 43.0178 42.1706 43.3005 42.4066Z" fill="#5B7FFF"/>
<path d="M2.33333 59.6667H1.83333V60.1667H2.33333V59.6667ZM2.33333 2.33333V1.83333H1.83333V2.33333H2.33333ZM38.4761 1.69243H38.9761V1.68295L38.9757 1.67347L38.4761 1.69243ZM38.4761 16.626L38.178 17.0275L38.9761 17.6199V16.626H38.4761ZM31.3974 11.3707L31.0992 11.772L31.0994 11.7721L31.3974 11.3707ZM30.6027 11.3707L30.9008 11.7721L30.9009 11.772L30.6027 11.3707ZM23.5247 16.626H23.0247V17.62L23.8228 17.0274L23.5247 16.626ZM23.5247 2.33333V1.83333H23.0247V2.33333H23.5247ZM22.5587 18.5473L22.7839 18.1009L22.7834 18.1006L22.5587 18.5473ZM23.2554 18.4867L22.9573 18.0852L22.9556 18.0865L23.2554 18.4867ZM31.0001 12.736L31.2981 12.3346L31.0001 12.1132L30.702 12.3346L31.0001 12.736ZM38.7454 18.4867L39.0439 18.0856L39.0435 18.0852L38.7454 18.4867ZM39.4421 18.5473L39.6657 18.9945L39.6667 18.994L39.4421 18.5473ZM39.8094 2.33333V1.83333H39.3094V2.33333H39.8094ZM59.6663 2.33333H60.1663V1.83333H59.6663V2.33333ZM45.8545 59.8886L45.4241 60.143L45.4241 60.1431L45.8545 59.8886ZM49.7505 59.8892L50.1807 60.1439L50.181 60.1435L49.7505 59.8892ZM51.4972 56.9319L51.0668 56.6773L51.0666 56.6776L51.4972 56.9319ZM51.5291 56.8779L51.0988 56.6233L51.0988 56.6233L51.5291 56.8779ZM59.6378 42.8072L59.194 42.5768L59.1908 42.5833L59.6378 42.8072ZM59.6738 42.7379L60.1177 42.9684L60.1234 42.9567L59.6738 42.7379ZM35.9405 42.7572L35.491 42.9764L35.493 42.9803L35.9405 42.7572ZM44.0953 56.9132L44.5256 56.6586L44.5256 56.6586L44.0953 56.9132ZM44.1052 56.9299L44.5356 56.6754L44.5355 56.6754L44.1052 56.9299ZM58.4465 42.2092L58.8935 42.4333L58.8959 42.4284L58.4465 42.2092ZM50.3492 56.2526L49.9189 55.9979L49.9186 55.9983L50.3492 56.2526ZM48.6025 59.2099L49.0327 59.4647L49.033 59.4642L48.6025 59.2099ZM47.0025 59.2099L47.4331 58.9558L47.4329 58.9554L47.0025 59.2099ZM45.2532 56.2512L45.6836 55.9967L45.6835 55.9967L45.2532 56.2512ZM45.2176 56.1911L45.648 55.9366L45.6464 55.9339L45.2176 56.1911ZM45.2175 56.1909L44.7868 56.4449L44.7887 56.4482L45.2175 56.1909ZM45.2172 56.1905L45.6479 55.9365L45.6476 55.9359L45.2172 56.1905ZM37.1365 42.1672L36.687 42.3863L36.689 42.3903L37.1365 42.1672ZM43.3005 42.4066L43.6214 42.0231L43.6209 42.0227L43.3005 42.4066ZM44.1558 41.3846L43.8339 41.7671L43.835 41.768L44.1558 41.3846ZM43.2172 41.4679L43.6006 41.7888L43.601 41.7882L43.2172 41.4679ZM38.8033 60.5H1.66667V61.5H38.8033V60.5ZM38.97 60.3333C38.97 60.4259 38.8959 60.5 38.8033 60.5V61.5C39.4481 61.5 39.97 60.9781 39.97 60.3333H38.97ZM38.8033 60.1667C38.8959 60.1667 38.97 60.2408 38.97 60.3333H39.97C39.97 59.6885 39.4481 59.1667 38.8033 59.1667V60.1667ZM2.33333 60.1667H38.8033V59.1667H2.33333V60.1667ZM1.83333 2.33333V59.6667H2.83333V2.33333H1.83333ZM16.1913 1.83333H2.33333V2.83333H16.1913V1.83333ZM16.358 1.66667C16.358 1.75852 16.2832 1.83333 16.1913 1.83333V2.83333C16.8355 2.83333 17.358 2.31081 17.358 1.66667H16.358ZM16.1913 1.5C16.2832 1.5 16.358 1.57481 16.358 1.66667H17.358C17.358 1.02252 16.8355 0.5 16.1913 0.5V1.5ZM1.66667 1.5H16.1913V0.5H1.66667V1.5ZM1.5 1.66667C1.5 1.57481 1.57481 1.5 1.66667 1.5V0.5C1.02252 0.5 0.5 1.02252 0.5 1.66667H1.5ZM1.5 60.3333V1.66667H0.5V60.3333H1.5ZM1.66667 60.5C1.57448 60.5 1.5 60.4255 1.5 60.3333H0.5C0.5 60.9785 1.02285 61.5 1.66667 61.5V60.5ZM60.3329 23.56C60.2407 23.56 60.1663 23.4855 60.1663 23.3933H59.1663C59.1663 24.0371 59.6878 24.56 60.3329 24.56V23.56ZM60.4996 23.3933C60.4996 23.4859 60.4254 23.56 60.3329 23.56V24.56C60.9777 24.56 61.4996 24.0381 61.4996 23.3933H60.4996ZM60.4996 1.66667V23.3933H61.4996V1.66667H60.4996ZM60.3329 1.5C60.4251 1.5 60.4996 1.57449 60.4996 1.66667H61.4996C61.4996 1.02285 60.978 0.5 60.3329 0.5V1.5ZM39.1427 1.5H60.3329V0.5H39.1427V1.5ZM39.1423 1.5H39.1427V0.5H39.1423V1.5ZM38.9756 1.66667C38.9756 1.57448 39.0501 1.5 39.1423 1.5V0.5C38.4971 0.5 37.9756 1.02285 37.9756 1.66667H38.9756ZM38.9757 1.67347C38.9756 1.67122 38.9756 1.66895 38.9756 1.66667H37.9756C37.9756 1.68163 37.9759 1.69654 37.9764 1.71138L38.9757 1.67347ZM38.9761 16.626V1.69243H37.9761V16.626H38.9761ZM31.0994 11.7721L38.178 17.0275L38.7741 16.2245L31.6955 10.9692L31.0994 11.7721ZM30.9009 11.772C30.9599 11.7282 31.0403 11.7282 31.0992 11.772L31.6956 10.9693C31.2826 10.6625 30.7176 10.6625 30.3046 10.9693L30.9009 11.772ZM23.8228 17.0274L30.9008 11.7721L30.3047 10.9692L23.2267 16.2246L23.8228 17.0274ZM23.0247 2.33333V16.626H24.0247V2.33333H23.0247ZM31.0001 1.83333H23.5247V2.83333H31.0001V1.83333ZM31.1667 1.66667C31.1667 1.75852 31.0919 1.83333 31.0001 1.83333V2.83333C31.6442 2.83333 32.1667 2.31081 32.1667 1.66667H31.1667ZM31.0001 1.5C31.0919 1.5 31.1667 1.57481 31.1667 1.66667H32.1667C32.1667 1.02252 31.6442 0.5 31.0001 0.5V1.5ZM22.8581 1.5H31.0001V0.5H22.8581V1.5ZM22.6914 1.66667C22.6914 1.57481 22.7662 1.5 22.8581 1.5V0.5C22.2139 0.5 21.6914 1.02252 21.6914 1.66667H22.6914ZM22.6914 17.9513V1.66667H21.6914V17.9513H22.6914ZM22.7834 18.1006C22.727 18.0723 22.6914 18.0145 22.6914 17.9513H21.6914C21.6914 18.3921 21.9398 18.7957 22.3341 18.994L22.7834 18.1006ZM22.9556 18.0865C22.9068 18.1231 22.8404 18.1294 22.7839 18.1009L22.3335 18.9937C22.7265 19.192 23.2 19.1529 23.5552 18.8868L22.9556 18.0865ZM30.702 12.3346L22.9573 18.0852L23.5535 18.8881L31.2982 13.1374L30.702 12.3346ZM39.0435 18.0852L31.2981 12.3346L30.702 13.1374L38.4473 18.8881L39.0435 18.0852ZM39.1427 18.118C39.1067 18.118 39.0727 18.107 39.0439 18.0856L38.4469 18.8878C38.6528 19.041 38.8974 19.118 39.1427 19.118V18.118ZM39.2185 18.1001C39.1945 18.1121 39.1686 18.118 39.1427 18.118V19.118C39.3209 19.118 39.5003 19.0772 39.6657 18.9945L39.2185 18.1001ZM39.3094 17.9513C39.3094 18.0145 39.2738 18.0723 39.2174 18.1006L39.6667 18.994C40.061 18.7957 40.3094 18.3921 40.3094 17.9513H39.3094ZM39.3094 2.33333V17.9513H40.3094V2.33333H39.3094ZM59.6663 1.83333H39.8094V2.83333H59.6663V1.83333ZM60.1663 23.3933V2.33333H59.1663V23.3933H60.1663ZM21.3863 46.2034H10.321V47.2034H21.3863V46.2034ZM21.553 46.0368C21.553 46.129 21.4785 46.2034 21.3863 46.2034V47.2034C22.0301 47.2034 22.553 46.6819 22.553 46.0368H21.553ZM21.3863 45.8701C21.4785 45.8701 21.553 45.9446 21.553 46.0368H22.553C22.553 45.3917 22.0301 44.8701 21.3863 44.8701V45.8701ZM10.321 45.8701H21.3863V44.8701H10.321V45.8701ZM10.1543 46.0368C10.1543 45.9446 10.2288 45.8701 10.321 45.8701V44.8701C9.67715 44.8701 9.1543 45.3917 9.1543 46.0368H10.1543ZM10.321 46.2034C10.2288 46.2034 10.1543 46.129 10.1543 46.0368H9.1543C9.1543 46.6819 9.67715 47.2034 10.321 47.2034V46.2034ZM10.321 53.2484H21.3863V52.2484H10.321V53.2484ZM9.1543 52.0817C9.1543 52.7268 9.67715 53.2484 10.321 53.2484V52.2484C10.2288 52.2484 10.1543 52.1739 10.1543 52.0817H9.1543ZM10.321 50.915C9.67715 50.915 9.1543 51.4366 9.1543 52.0817H10.1543C10.1543 51.9895 10.2288 51.915 10.321 51.915V50.915ZM21.3863 50.915H10.321V51.915H21.3863V50.915ZM22.553 52.0817C22.553 51.4366 22.0301 50.915 21.3863 50.915V51.915C21.4785 51.915 21.553 51.9895 21.553 52.0817H22.553ZM21.3863 53.2484C22.0301 53.2484 22.553 52.7268 22.553 52.0817H21.553C21.553 52.1739 21.4785 52.2484 21.3863 52.2484V53.2484ZM47.8025 60.4999C47.1833 60.4999 46.6002 60.1673 46.2849 59.634L45.4241 60.1431C45.9194 60.9805 46.8297 61.4999 47.8025 61.4999V60.4999ZM49.3202 59.6345C49.0049 60.1672 48.4217 60.4999 47.8025 60.4999V61.4999C48.7753 61.4999 49.6855 60.9806 50.1807 60.1439L49.3202 59.6345ZM51.0666 56.6776L49.32 59.6349L50.181 60.1435L51.9277 57.1862L51.0666 56.6776ZM51.0988 56.6233L51.0668 56.6773L51.9275 57.1865L51.9595 57.1324L51.0988 56.6233ZM59.1908 42.5833C58.0105 44.9392 54.6656 50.5941 51.0988 56.6233L51.9595 57.1324C55.513 51.1257 58.8843 45.4276 60.0849 43.0312L59.1908 42.5833ZM59.2301 42.5075L59.1941 42.5768L60.0816 43.0376L60.1176 42.9683L59.2301 42.5075ZM60.4998 36.9659C60.4998 38.9125 60.0709 40.7797 59.2243 42.5191L60.1234 42.9567C61.0368 41.0801 61.4998 39.0632 61.4998 36.9659H60.4998ZM47.8025 24.2686C54.803 24.2686 60.4998 29.9654 60.4998 36.9659H61.4998C61.4998 29.4131 55.3553 23.2686 47.8025 23.2686V24.2686ZM35.1045 36.9659C35.1045 29.9647 40.8013 24.2686 47.8025 24.2686V23.2686C40.249 23.2686 34.1045 29.4124 34.1045 36.9659H35.1045ZM36.3899 42.5381C35.5359 40.7864 35.1045 38.9147 35.1045 36.9659H34.1045C34.1045 39.0664 34.5704 41.088 35.4911 42.9763L36.3899 42.5381ZM44.5256 56.6586C40.9257 50.5724 37.5472 44.8598 36.388 42.5342L35.493 42.9803C36.673 45.3476 40.0789 51.105 43.6649 57.1677L44.5256 56.6586ZM44.5355 56.6754L44.5256 56.6586L43.6649 57.1677L43.6748 57.1844L44.5355 56.6754ZM46.2849 59.6341L44.5356 56.6754L43.6748 57.1844L45.4241 60.143L46.2849 59.6341ZM47.8025 24.6019C40.9844 24.6019 35.4378 30.1477 35.4378 36.9659H36.4378C36.4378 30.7001 41.5366 25.6019 47.8025 25.6019V24.6019ZM60.1665 36.9659C60.1665 30.1477 54.6206 24.6019 47.8025 24.6019V25.6019C54.0684 25.6019 59.1665 30.7 59.1665 36.9659H60.1665ZM58.8959 42.4284C59.7482 40.6807 60.1665 38.8605 60.1665 36.9659H59.1665C59.1665 38.7073 58.7834 40.3777 57.9971 41.99L58.8959 42.4284ZM50.7795 56.5072C54.3335 50.5011 57.7093 44.7955 58.8935 42.4333L57.9995 41.9852C56.8356 44.307 53.4862 49.9693 49.9189 55.9979L50.7795 56.5072ZM49.033 59.4642L50.7797 56.5068L49.9186 55.9983L48.172 58.9556L49.033 59.4642ZM47.8025 60.1666C48.3065 60.1666 48.7763 59.8974 49.0327 59.4647L48.1723 58.955C48.0953 59.085 47.9518 59.1666 47.8025 59.1666V60.1666ZM46.5719 59.464C46.8278 59.8977 47.2982 60.1666 47.8025 60.1666V59.1666C47.6521 59.1666 47.5092 59.0848 47.4331 58.9558L46.5719 59.464ZM44.8228 56.5057L46.5721 59.4644L47.4329 58.9554L45.6836 55.9967L44.8228 56.5057ZM44.7873 56.4456L44.8228 56.5057L45.6835 55.9967L45.648 55.9366L44.7873 56.4456ZM44.7887 56.4482L44.7889 56.4484L45.6464 55.9339L45.6462 55.9337L44.7887 56.4482ZM44.7865 56.4445L44.7868 56.4449L45.6482 55.9369L45.6479 55.9365L44.7865 56.4445ZM36.689 42.3903C37.8422 44.7035 41.2232 50.4194 44.7869 56.445L45.6476 55.9359C42.0699 49.8866 38.7164 44.2156 37.584 41.9441L36.689 42.3903ZM35.4378 36.9659C35.4378 38.861 35.8584 40.6859 36.687 42.3863L37.586 41.9482C36.8239 40.3846 36.4378 38.7095 36.4378 36.9659H35.4378ZM47.8025 43.5412C46.2757 43.5412 44.7907 43.0018 43.6214 42.0231L42.9796 42.79C44.329 43.9193 46.0412 44.5412 47.8025 44.5412V43.5412ZM54.3178 37.0252C54.3178 40.6172 51.3949 43.5412 47.8025 43.5412V44.5412C51.9474 44.5412 55.3178 41.1693 55.3178 37.0252H54.3178ZM47.8025 30.5092C51.3943 30.5092 54.3178 33.4333 54.3178 37.0252H55.3178C55.3178 32.8811 51.9467 29.5092 47.8025 29.5092V30.5092ZM41.2865 37.0252C41.2865 33.4327 44.2106 30.5092 47.8025 30.5092V29.5092C43.6584 29.5092 40.2865 32.8804 40.2865 37.0252H41.2865ZM41.4532 37.1919C41.3606 37.1919 41.2865 37.1177 41.2865 37.0252H40.2865C40.2865 37.67 40.8084 38.1919 41.4532 38.1919V37.1919ZM41.6198 37.0252C41.6198 37.1177 41.5457 37.1919 41.4532 37.1919V38.1919C42.098 38.1919 42.6198 37.67 42.6198 37.0252H41.6198ZM47.8025 30.8426C44.393 30.8426 41.6198 33.6157 41.6198 37.0252H42.6198C42.6198 34.168 44.9453 31.8426 47.8025 31.8426V30.8426ZM53.9845 37.0252C53.9845 33.6158 51.212 30.8426 47.8025 30.8426V31.8426C50.6596 31.8426 52.9845 34.168 52.9845 37.0252H53.9845ZM47.8025 43.2079C51.212 43.2079 53.9845 40.4346 53.9845 37.0252H52.9845C52.9845 39.8825 50.6596 42.2079 47.8025 42.2079V43.2079ZM43.835 41.768C44.9451 42.6968 46.354 43.2079 47.8025 43.2079V42.2079C46.5883 42.2079 45.4066 41.779 44.4767 41.0011L43.835 41.768ZM43.601 41.7882C43.6599 41.7177 43.7649 41.7091 43.8339 41.7671L44.4778 41.002C43.9827 40.5854 43.2451 40.654 42.8333 41.1475L43.601 41.7882ZM43.6209 42.0227C43.5512 41.9645 43.5413 41.8596 43.6006 41.7888L42.8337 41.147C42.421 41.6401 42.4844 42.3766 42.98 42.7904L43.6209 42.0227Z" fill="#5B7FFF" mask="url(#path-1-outside-1_14_14499)"/>
</svg>
