<svg width="14" height="6" viewBox="0 0 14 6" fill="none" xmlns="http://www.w3.org/2000/svg">
    <path fill-rule="evenodd" clip-rule="evenodd" d="M11.1639 0.652259C11.3559 0.453839 11.6725 0.448677 11.8709 0.640729L13.6317 2.34503C13.6359 2.34908 13.6402 2.35323 13.6446 2.35746C13.7047 2.41554 13.7811 2.48938 13.8387 2.56242C13.909 2.65159 14 2.79833 14 3C14 3.20167 13.909 3.34841 13.8387 3.43759C13.7811 3.51062 13.7047 3.58445 13.6446 3.64254C13.6402 3.64677 13.6359 3.65092 13.6317 3.65497L11.8709 5.35927C11.6725 5.55132 11.3559 5.54616 11.1639 5.34774C10.9718 5.14932 10.977 4.83278 11.1754 4.64073L12.354 3.49995H1C0.723858 3.49995 0.5 3.27609 0.5 2.99995C0.5 2.72381 0.723858 2.49995 1 2.49995H12.3539L11.1754 1.35927C10.977 1.16722 10.9718 0.85068 11.1639 0.652259Z" fill="#8A8A8A"/>
</svg>
