<svg width="50" height="51" viewBox="0 0 50 51" fill="none" xmlns="http://www.w3.org/2000/svg">
<path d="M16.6621 33.8334H24.9954M16.6621 23.4167H33.3288" stroke="#D5D5D5" stroke-width="3" stroke-linecap="round"/>
<path d="M15.6247 7.79175C12.3834 7.88899 10.451 8.24974 9.11379 9.58815C7.2832 11.4204 7.2832 14.3695 7.2832 20.2675L7.2832 33.8218C7.2832 39.7198 7.2832 42.6688 9.11379 44.5011C10.9444 46.3334 13.8906 46.3334 19.7832 46.3334L30.1999 46.3334C36.0924 46.3334 39.0387 46.3334 40.8693 44.5011C42.6999 42.6688 42.6999 39.7198 42.6999 33.8218V20.2675C42.6999 14.3695 42.6999 11.4204 40.8693 9.58815C39.5321 8.24974 37.5996 7.88899 34.3584 7.79175" stroke="#D5D5D5" stroke-width="3"/>
<path d="M15.6162 8.31258C15.6162 6.29904 17.2485 4.66675 19.262 4.66675H30.7204C32.7339 4.66675 34.3662 6.29904 34.3662 8.31258C34.3662 10.3261 32.7339 11.9584 30.7204 11.9584H19.262C17.2485 11.9584 15.6162 10.3261 15.6162 8.31258Z" stroke="#D5D5D5" stroke-width="3" stroke-linejoin="round"/>
</svg>
