<svg width="50" height="51" viewBox="0 0 50 51" fill="none" xmlns="http://www.w3.org/2000/svg">
<path d="M13.7033 32.7534C10.7558 34.5084 3.02784 38.092 7.73471 42.5763C10.034 44.7668 12.5948 46.3334 15.8143 46.3334H34.1857C37.4052 46.3334 39.966 44.7668 42.2653 42.5763C46.9722 38.092 39.2442 34.5084 36.2967 32.7534C29.385 28.6379 20.615 28.6379 13.7033 32.7534Z" stroke="#D5D5D5" stroke-width="3" stroke-linecap="round" stroke-linejoin="round"/>
<path d="M34.375 14.0417C34.375 19.2194 30.1777 23.4167 25 23.4167C19.8223 23.4167 15.625 19.2194 15.625 14.0417C15.625 8.86408 19.8223 4.66675 25 4.66675C30.1777 4.66675 34.375 8.86408 34.375 14.0417Z" stroke="#D5D5D5" stroke-width="3"/>
</svg>
