<svg width="50" height="51" viewBox="0 0 50 51" fill="none" xmlns="http://www.w3.org/2000/svg">
<path d="M28.5996 7.67545L32.2658 15.0686C32.7658 16.0977 34.099 17.0849 35.2238 17.2739L41.8689 18.3871C46.1185 19.1012 47.1184 22.2097 44.0562 25.2761L38.8901 30.4849C38.0152 31.367 37.5361 33.0683 37.8069 34.2865L39.2859 40.7345C40.4524 45.8382 37.7652 47.8125 33.2866 45.1451L27.0581 41.4276C25.9332 40.7555 24.0792 40.7555 22.9335 41.4276L16.7051 45.1451C12.2472 47.8125 9.53917 45.8172 10.7057 40.7345L12.1847 34.2865C12.4555 33.0683 11.9764 31.367 11.1015 30.4849L5.93541 25.2761C2.89408 22.2097 3.87313 19.1012 8.12267 18.3871L14.7678 17.2739C15.8718 17.0849 17.205 16.0977 17.7049 15.0686L21.3712 7.67545C23.371 3.66385 26.6206 3.66385 28.5996 7.67545Z" stroke="#D5D5D5" stroke-width="3" stroke-linecap="round" stroke-linejoin="round"/>
</svg>
