<svg width="50" height="51" viewBox="0 0 50 51" fill="none" xmlns="http://www.w3.org/2000/svg">
<path d="M6.25 44.2499L16.6667 33.8333" stroke="#D5D5D5" stroke-width="3" stroke-linecap="round" stroke-linejoin="round"/>
<path d="M27.6221 39.8153C19.8236 38.0447 12.4554 30.6766 10.6848 22.8781C10.4045 21.6436 10.2643 21.0264 10.6703 20.0249C11.0764 19.0235 11.5723 18.7137 12.5643 18.0939C14.8067 16.693 17.2348 16.2477 19.7547 16.4705C23.2905 16.7833 25.0585 16.9397 25.9404 16.4802C26.8223 16.0207 27.4217 14.9462 28.6203 12.7973L30.1387 10.0751C31.1389 8.28183 31.639 7.38521 32.8155 6.96253C33.9919 6.53986 34.6999 6.79582 36.1159 7.30773C39.4272 8.50491 41.9953 11.073 43.1925 14.3844C43.7045 15.8003 43.9605 16.5083 43.5378 17.6848C43.1151 18.8612 42.2185 19.3614 40.4252 20.3616L37.6403 21.915C35.4954 23.1113 34.423 23.7095 33.9636 24.6C33.5043 25.4906 33.6711 27.22 34.0048 30.6789C34.2501 33.2225 33.8273 35.6667 32.4076 37.9368C31.7872 38.9287 31.477 39.4247 30.4759 39.8303C29.4747 40.236 28.8572 40.0958 27.6221 39.8153Z" stroke="#D5D5D5" stroke-width="3" stroke-linecap="round" stroke-linejoin="round"/>
</svg>
