<svg width="50" height="51" viewBox="0 0 50 51" fill="none" xmlns="http://www.w3.org/2000/svg">
<path d="M26.5003 17.1667C26.5003 16.3383 25.8288 15.6667 25.0003 15.6667C24.1719 15.6667 23.5003 16.3383 23.5003 17.1667H26.5003ZM25.0003 25.5001H23.5003C23.5003 25.8979 23.6584 26.2794 23.9397 26.5607L25.0003 25.5001ZM28.1063 30.7274C28.6921 31.3132 29.6419 31.3132 30.2277 30.7274C30.8134 30.1416 30.8134 29.1919 30.2277 28.6061L28.1063 30.7274ZM44.3337 25.5001C44.3337 36.1776 35.6778 44.8334 25.0003 44.8334V47.8334C37.3347 47.8334 47.3337 37.8344 47.3337 25.5001H44.3337ZM25.0003 44.8334C14.3228 44.8334 5.66699 36.1776 5.66699 25.5001H2.66699C2.66699 37.8344 12.666 47.8334 25.0003 47.8334V44.8334ZM5.66699 25.5001C5.66699 14.8226 14.3228 6.16675 25.0003 6.16675V3.16675C12.666 3.16675 2.66699 13.1657 2.66699 25.5001H5.66699ZM25.0003 6.16675C35.6778 6.16675 44.3337 14.8226 44.3337 25.5001H47.3337C47.3337 13.1657 37.3347 3.16675 25.0003 3.16675V6.16675ZM23.5003 17.1667V25.5001H26.5003V17.1667H23.5003ZM23.9397 26.5607L28.1063 30.7274L30.2277 28.6061L26.061 24.4394L23.9397 26.5607Z" fill="#D5D5D5"/>
</svg>
