<svg width="12" height="13" viewBox="0 0 12 13" fill="none" xmlns="http://www.w3.org/2000/svg">
<path d="M2.70822 11.6944C2.70822 11.9936 2.95074 12.2361 3.24989 12.2361C3.54905 12.2361 3.79156 11.9936 3.79156 11.6944L2.70822 11.6944ZM8.72651 11.6944C8.72651 11.9936 8.96902 12.2361 9.26817 12.2361C9.56733 12.2361 9.80984 11.9936 9.80984 11.6944H8.72651ZM9.80984 8.08331C9.80984 7.78415 9.56733 7.54164 9.26817 7.54164C8.96902 7.54164 8.72651 7.78415 8.72651 8.08331H9.80984ZM9.80984 0.861084C9.80984 0.56193 9.56733 0.319417 9.26817 0.319417C8.96902 0.319417 8.72651 0.56193 8.72651 0.861084H9.80984ZM2.70822 4.4722C2.70822 4.77135 2.95074 5.01386 3.24989 5.01386C3.54905 5.01386 3.79156 4.77135 3.79156 4.4722L2.70822 4.4722ZM3.79156 0.861084C3.79156 0.56193 3.54905 0.319417 3.24989 0.319417C2.95074 0.319417 2.70823 0.56193 2.70823 0.861084L3.79156 0.861084ZM4.96382 9.1458L5.46426 9.35308L4.96382 9.1458ZM4.31238 9.79724L4.51967 10.2977L4.31238 9.79724ZM4.31238 6.36938L4.51967 5.86894L4.31238 6.36938ZM4.96382 7.02082L5.46426 6.81353L4.96382 7.02082ZM1.53596 7.02082L1.03553 6.81353L1.53596 7.02082ZM2.1874 6.36938L1.98012 5.86894L2.1874 6.36938ZM1.53596 9.1458L1.03553 9.35308L1.53596 9.1458ZM2.1874 9.79724L1.98012 10.2977L2.1874 9.79724ZM10.9821 5.53468L11.4825 5.74197L10.9821 5.53468ZM10.3307 6.18612L10.538 6.68656L10.3307 6.18612ZM10.3307 2.75827L10.538 2.25783L10.3307 2.75827ZM10.9821 3.40971L11.4825 3.20242L10.9821 3.40971ZM7.55425 3.40971L7.05381 3.20242L7.55425 3.40971ZM8.20569 2.75827L7.9984 2.25783L8.20569 2.75827ZM7.55425 5.53468L7.05381 5.74197L7.55425 5.53468ZM8.20569 6.18612L7.9984 6.68656L8.20569 6.18612ZM3.79156 11.6944L3.79156 9.88886L2.70822 9.88886L2.70822 11.6944L3.79156 11.6944ZM9.80984 11.6944V8.08331H8.72651V11.6944H9.80984ZM9.80984 2.66664V0.861084H8.72651V2.66664H9.80984ZM3.79156 4.4722L3.79156 0.861084L2.70823 0.861084L2.70822 4.4722L3.79156 4.4722ZM4.51378 8.08331C4.51378 8.37115 4.51349 8.5599 4.50358 8.70505C4.49401 8.84533 4.4773 8.90491 4.46339 8.93851L5.46426 9.35308C5.54196 9.16548 5.57107 8.97424 5.5844 8.77879C5.59741 8.58821 5.59711 8.35632 5.59711 8.08331L4.51378 8.08331ZM3.24989 10.4305C3.52291 10.4305 3.7548 10.4308 3.94538 10.4178C4.14082 10.4045 4.33206 10.3754 4.51967 10.2977L4.10509 9.2968C4.07149 9.31072 4.01192 9.32743 3.87163 9.337C3.72648 9.3469 3.53773 9.3472 3.24989 9.3472L3.24989 10.4305ZM4.46339 8.93851C4.39619 9.10073 4.26731 9.22961 4.10509 9.2968L4.51967 10.2977C4.94733 10.1205 5.28711 9.78075 5.46426 9.35308L4.46339 8.93851ZM3.24989 6.81942C3.53773 6.81942 3.72648 6.81971 3.87163 6.82961C4.01192 6.83919 4.07149 6.85589 4.10509 6.86981L4.51967 5.86894C4.33206 5.79123 4.14082 5.76213 3.94538 5.74879C3.7548 5.73579 3.52291 5.73608 3.24989 5.73608L3.24989 6.81942ZM5.59711 8.08331C5.59711 7.81029 5.59741 7.5784 5.5844 7.38782C5.57107 7.19238 5.54196 7.00113 5.46426 6.81353L4.46339 7.2281C4.4773 7.2617 4.49401 7.32128 4.50358 7.46156C4.51349 7.60672 4.51378 7.79547 4.51378 8.08331L5.59711 8.08331ZM4.10509 6.86981C4.26731 6.937 4.39619 7.06589 4.46339 7.2281L5.46426 6.81353C5.28711 6.38587 4.94733 6.04609 4.51967 5.86894L4.10509 6.86981ZM1.986 8.08331C1.986 7.79547 1.9863 7.60672 1.9962 7.46156C2.00577 7.32128 2.02248 7.2617 2.0364 7.2281L1.03553 6.81353C0.957819 7.00113 0.928714 7.19238 0.915379 7.38782C0.902376 7.5784 0.902669 7.81029 0.902669 8.08331L1.986 8.08331ZM3.24989 5.73608C2.97687 5.73608 2.74498 5.73579 2.55441 5.74879C2.35896 5.76213 2.16772 5.79123 1.98012 5.86894L2.39469 6.86981C2.42829 6.85589 2.48786 6.83919 2.62815 6.82961C2.7733 6.81971 2.96205 6.81942 3.24989 6.81942L3.24989 5.73608ZM2.0364 7.2281C2.10359 7.06589 2.23247 6.937 2.39469 6.86981L1.98012 5.86894C1.55245 6.04609 1.21267 6.38587 1.03553 6.81353L2.0364 7.2281ZM0.902669 8.08331C0.902669 8.35632 0.902376 8.58821 0.915379 8.77879C0.928714 8.97424 0.957819 9.16548 1.03553 9.35308L2.0364 8.93851C2.02248 8.90491 2.00577 8.84533 1.9962 8.70505C1.9863 8.5599 1.986 8.37115 1.986 8.08331L0.902669 8.08331ZM3.24989 9.3472C2.96205 9.3472 2.7733 9.3469 2.62815 9.337C2.48786 9.32743 2.42829 9.31072 2.39469 9.2968L1.98012 10.2977C2.16772 10.3754 2.35896 10.4045 2.55441 10.4178C2.74498 10.4308 2.97687 10.4305 3.24989 10.4305L3.24989 9.3472ZM1.03553 9.35308C1.21267 9.78075 1.55245 10.1205 1.98012 10.2977L2.39469 9.2968C2.23247 9.22961 2.10359 9.10073 2.0364 8.93851L1.03553 9.35308ZM10.5321 4.4722C10.5321 4.76003 10.5318 4.94879 10.5219 5.09394C10.5123 5.23422 10.4956 5.2938 10.4817 5.3274L11.4825 5.74197C11.5602 5.55437 11.5894 5.36312 11.6027 5.16768C11.6157 4.9771 11.6154 4.74521 11.6154 4.4722L10.5321 4.4722ZM9.26818 6.81942C9.54119 6.81942 9.77308 6.81971 9.96366 6.80671C10.1591 6.79337 10.3503 6.76427 10.538 6.68656L10.1234 5.68569C10.0898 5.69961 10.0302 5.71632 9.88992 5.72589C9.74477 5.73579 9.55601 5.73608 9.26818 5.73608L9.26818 6.81942ZM10.4817 5.3274C10.4145 5.48962 10.2856 5.6185 10.1234 5.68569L10.538 6.68656C10.9656 6.50941 11.3054 6.16964 11.4825 5.74197L10.4817 5.3274ZM9.26817 3.20831C9.55601 3.20831 9.74477 3.2086 9.88992 3.2185C10.0302 3.22807 10.0898 3.24478 10.1234 3.2587L10.538 2.25783C10.3503 2.18012 10.1591 2.15102 9.96366 2.13768C9.77308 2.12468 9.54119 2.12497 9.26817 2.12497L9.26817 3.20831ZM11.6154 4.4722C11.6154 4.19918 11.6157 3.96729 11.6027 3.77671C11.5894 3.58127 11.5602 3.39002 11.4825 3.20242L10.4817 3.61699C10.4956 3.65059 10.5123 3.71017 10.5219 3.85045C10.5318 3.9956 10.5321 4.18436 10.5321 4.4722L11.6154 4.4722ZM10.1234 3.2587C10.2856 3.32589 10.4145 3.45477 10.4817 3.61699L11.4825 3.20242C11.3054 2.77475 10.9656 2.43498 10.538 2.25783L10.1234 3.2587ZM8.00429 4.4722C8.00429 4.18436 8.00458 3.9956 8.01448 3.85045C8.02405 3.71017 8.04076 3.65059 8.05468 3.61699L7.05381 3.20242C6.9761 3.39002 6.947 3.58127 6.93366 3.77671C6.92066 3.96729 6.92095 4.19918 6.92095 4.4722L8.00429 4.4722ZM9.26817 2.12497C8.99516 2.12497 8.76327 2.12468 8.57269 2.13768C8.37725 2.15102 8.186 2.18012 7.9984 2.25783L8.41297 3.2587C8.44657 3.24478 8.50615 3.22807 8.64643 3.2185C8.79158 3.2086 8.98034 3.20831 9.26817 3.20831L9.26817 2.12497ZM8.05468 3.61699C8.12187 3.45477 8.25075 3.32589 8.41297 3.2587L7.9984 2.25783C7.57073 2.43498 7.23096 2.77475 7.05381 3.20242L8.05468 3.61699ZM6.92095 4.4722C6.92095 4.74521 6.92066 4.9771 6.93366 5.16768C6.947 5.36312 6.9761 5.55437 7.05381 5.74197L8.05468 5.3274C8.04076 5.2938 8.02405 5.23422 8.01448 5.09394C8.00458 4.94879 8.00429 4.76003 8.00429 4.4722L6.92095 4.4722ZM9.26818 5.73608C8.98034 5.73608 8.79158 5.73579 8.64643 5.72589C8.50615 5.71632 8.44657 5.69961 8.41297 5.68569L7.9984 6.68656C8.186 6.76427 8.37725 6.79337 8.57269 6.80671C8.76327 6.81971 8.99516 6.81942 9.26818 6.81942L9.26818 5.73608ZM7.05381 5.74197C7.23096 6.16964 7.57073 6.50941 7.9984 6.68656L8.41297 5.68569C8.25075 5.6185 8.12187 5.48962 8.05468 5.3274L7.05381 5.74197Z" fill="#8A8A8A"/>
</svg>
