<svg width="16" height="17" viewBox="0 0 16 17" fill="none" xmlns="http://www.w3.org/2000/svg">
<path d="M4 16.1144L4 13.6144" stroke="#D5D5D5" stroke-width="1.5" stroke-linecap="round" stroke-linejoin="round"/>
<path d="M12.334 16.1144L12.334 11.1144" stroke="#D5D5D5" stroke-width="1.5" stroke-linecap="round" stroke-linejoin="round"/>
<path d="M12.334 3.61444L12.334 1.11444" stroke="#D5D5D5" stroke-width="1.5" stroke-linecap="round" stroke-linejoin="round"/>
<path d="M4 6.11444L4 1.11444" stroke="#D5D5D5" stroke-width="1.5" stroke-linecap="round" stroke-linejoin="round"/>
<path d="M4 13.6144C3.22343 13.6144 2.83515 13.6144 2.52886 13.4876C2.12048 13.3184 1.79602 12.994 1.62687 12.5856C1.5 12.2793 1.5 11.891 1.5 11.1144C1.5 10.3379 1.5 9.94959 1.62687 9.6433C1.79602 9.23492 2.12048 8.91047 2.52886 8.74131C2.83515 8.61444 3.22343 8.61444 4 8.61444C4.77657 8.61444 5.16485 8.61444 5.47114 8.74131C5.87952 8.91046 6.20398 9.23492 6.37313 9.6433C6.5 9.94959 6.5 10.3379 6.5 11.1144C6.5 11.891 6.5 12.2793 6.37313 12.5856C6.20398 12.994 5.87952 13.3184 5.47114 13.4876C5.16485 13.6144 4.77657 13.6144 4 13.6144Z" stroke="#D5D5D5" stroke-width="1.5"/>
<path d="M12.334 8.61444C11.5574 8.61444 11.1691 8.61444 10.8628 8.48757C10.4545 8.31842 10.13 7.99396 9.96085 7.58558C9.83398 7.27929 9.83398 6.89101 9.83398 6.11444C9.83398 5.33787 9.83398 4.94959 9.96085 4.6433C10.13 4.23492 10.4545 3.91047 10.8628 3.74131C11.1691 3.61444 11.5574 3.61444 12.334 3.61444C13.1106 3.61444 13.4988 3.61444 13.8051 3.74131C14.2135 3.91046 14.538 4.23492 14.7071 4.6433C14.834 4.94959 14.834 5.33787 14.834 6.11444C14.834 6.89101 14.834 7.27929 14.7071 7.58558C14.538 7.99396 14.2135 8.31842 13.8051 8.48757C13.4988 8.61444 13.1106 8.61444 12.334 8.61444Z" stroke="#D5D5D5" stroke-width="1.5"/>
</svg>
