<svg width="21" height="23" viewBox="0 0 21 23" fill="none" xmlns="http://www.w3.org/2000/svg">
<path d="M4.66602 21.8071L4.66602 18.3071" stroke="#010217" stroke-width="1.5" stroke-linecap="round" stroke-linejoin="round"/>
<path d="M16.332 21.8071L16.332 14.8071" stroke="#010217" stroke-width="1.5" stroke-linecap="round" stroke-linejoin="round"/>
<path d="M16.332 4.30713L16.332 0.807129" stroke="#010217" stroke-width="1.5" stroke-linecap="round" stroke-linejoin="round"/>
<path d="M4.66602 7.80713L4.66602 0.807129" stroke="#010217" stroke-width="1.5" stroke-linecap="round" stroke-linejoin="round"/>
<path d="M4.66602 18.3071C3.57882 18.3071 3.03522 18.3071 2.60642 18.1295C2.03469 17.8927 1.58045 17.4385 1.34363 16.8667C1.16602 16.4379 1.16602 15.8943 1.16602 14.8071C1.16602 13.7199 1.16602 13.1763 1.34363 12.7475C1.58045 12.1758 2.03469 11.7216 2.60642 11.4847C3.03522 11.3071 3.57882 11.3071 4.66602 11.3071C5.75321 11.3071 6.29681 11.3071 6.72561 11.4847C7.29734 11.7216 7.75158 12.1758 7.9884 12.7475C8.16602 13.1763 8.16602 13.7199 8.16602 14.8071C8.16602 15.8943 8.16602 16.4379 7.9884 16.8667C7.75158 17.4385 7.29734 17.8927 6.72561 18.1295C6.29681 18.3071 5.75321 18.3071 4.66602 18.3071Z" stroke="#010217" stroke-width="1.5"/>
<path d="M16.332 11.3071C15.2448 11.3071 14.7012 11.3071 14.2724 11.1295C13.7007 10.8927 13.2465 10.4385 13.0096 9.86672C12.832 9.43792 12.832 8.89433 12.832 7.80713C12.832 6.71993 12.832 6.17633 13.0096 5.74753C13.2465 5.1758 13.7007 4.72156 14.2724 4.48474C14.7012 4.30713 15.2448 4.30713 16.332 4.30713C17.4192 4.30713 17.9628 4.30713 18.3916 4.48474C18.9634 4.72156 19.4176 5.1758 19.6544 5.74753C19.832 6.17633 19.832 6.71993 19.832 7.80713C19.832 8.89433 19.832 9.43792 19.6544 9.86672C19.4176 10.4385 18.9634 10.8927 18.3916 11.1295C17.9628 11.3071 17.4192 11.3071 16.332 11.3071Z" stroke="#010217" stroke-width="1.5"/>
</svg>
