<svg width="14" height="15" viewBox="0 0 14 15" fill="none" xmlns="http://www.w3.org/2000/svg">
<path d="M12 3.28125L11.5868 9.96465C11.4813 11.6722 11.4285 12.526 11.0005 13.1398C10.7889 13.4433 10.5164 13.6994 10.2005 13.8919C9.56141 14.2813 8.70599 14.2813 6.99516 14.2813C5.28208 14.2813 4.42554 14.2813 3.78604 13.8912C3.46987 13.6984 3.19733 13.4418 2.98579 13.1378C2.55792 12.523 2.5063 11.668 2.40307 9.95802L2 3.28125" stroke="#D5D5D5" stroke-linecap="round"/>
<path d="M13 3.28125H1" stroke="#D5D5D5" stroke-linecap="round"/>
<path d="M9.70434 3.28121L9.24923 2.34236C8.94691 1.71871 8.79575 1.40689 8.535 1.21241C8.47716 1.16928 8.41592 1.1309 8.35187 1.09768C8.06313 0.947876 7.7166 0.947876 7.02354 0.947876C6.31308 0.947876 5.95785 0.947876 5.66431 1.10396C5.59926 1.13855 5.53718 1.17847 5.47872 1.22332C5.21495 1.42568 5.06761 1.74891 4.77293 2.39538L4.36914 3.28121" stroke="#D5D5D5" stroke-linecap="round"/>
<path d="M5.33398 10.6145L5.33398 6.6145" stroke="#D5D5D5" stroke-linecap="round"/>
<path d="M8.66602 10.6145L8.66602 6.6145" stroke="#D5D5D5" stroke-linecap="round"/>
</svg>
