<svg width="30" height="30" viewBox="0 0 30 30" fill="none" xmlns="http://www.w3.org/2000/svg">
<path d="M2.5 14.375C2.5 15.7557 3.61929 16.875 5 16.875C7.07107 16.875 8.75 15.1961 8.75 13.125V8.125C8.75 6.05393 7.07107 4.375 5 4.375C3.61929 4.375 2.5 5.49429 2.5 6.875V14.375Z" stroke="#8A8A8A" stroke-width="1.5" stroke-linecap="round" stroke-linejoin="round"/>
<path d="M19.3484 20.2422L19.0156 19.1671C18.7428 18.2861 18.6064 17.8456 18.7113 17.4978C18.7961 17.2163 18.9824 16.9737 19.2363 16.8141C19.55 16.6168 20.0246 16.6168 20.9739 16.6168H21.4789C24.6915 16.6168 26.2977 16.6168 27.0564 15.6659C27.1432 15.5572 27.2203 15.4416 27.287 15.3204C27.8706 14.2598 27.2071 12.8311 25.88 9.97362C24.6621 7.35139 24.0532 6.04028 22.9225 5.26856C22.8131 5.19384 22.7006 5.12338 22.5854 5.05732C21.3951 4.375 19.9202 4.375 16.9705 4.375H16.3307C12.7571 4.375 10.9703 4.375 9.86017 5.45066C8.75 6.52633 8.75 8.25758 8.75 11.7201V12.9371C8.75 14.7567 8.75 15.6665 9.07293 16.4993C9.39585 17.332 10.0142 18.0167 11.2509 19.3861L16.3651 25.0493C16.4934 25.1913 16.5575 25.2624 16.6141 25.3116C17.1419 25.7709 17.9565 25.7192 18.418 25.1971C18.4674 25.1411 18.5215 25.0626 18.6295 24.9056C18.7985 24.6599 18.883 24.5371 18.9567 24.4154C19.616 23.3261 19.8155 22.032 19.5135 20.8036C19.4798 20.6664 19.436 20.5249 19.3484 20.2422Z" stroke="#8A8A8A" stroke-width="1.5" stroke-linecap="round" stroke-linejoin="round"/>
</svg>
