<svg width="17" height="17" viewBox="0 0 17 17" fill="none" xmlns="http://www.w3.org/2000/svg">
<path d="M5.88121 8.92174C3.80751 7.37135 2.3297 5.66596 1.52278 4.70722C1.273 4.41044 1.19115 4.19325 1.14194 3.81067C0.973429 2.50067 0.889174 1.84567 1.27329 1.42283C1.65742 1 2.3367 1 3.69527 1H13.3047C14.6633 1 15.3426 1 15.7267 1.42283C16.1108 1.84567 16.0266 2.50067 15.8581 3.81067C15.8089 4.19326 15.727 4.41045 15.4772 4.70722C14.6692 5.66718 13.1884 7.37559 11.1105 8.92795C10.9225 9.0684 10.7986 9.29728 10.7756 9.55117C10.5697 11.8266 10.3799 13.073 10.2618 13.7035C10.071 14.7214 8.62764 15.3338 7.85501 15.8803C7.39505 16.2055 6.83692 15.8183 6.77731 15.3148C6.66369 14.3551 6.44967 12.4053 6.21606 9.55117C6.19507 9.29495 6.07071 9.0634 5.88121 8.92174Z" stroke="#010217" stroke-width="1.5" stroke-linecap="round" stroke-linejoin="round"/>
</svg>
