<svg width="16" height="18" viewBox="0 0 16 18" fill="none" xmlns="http://www.w3.org/2000/svg">
<path d="M2.75 16.5C2.75 16.9142 3.08579 17.25 3.5 17.25C3.91421 17.25 4.25 16.9142 4.25 16.5H2.75ZM11.0833 16.5C11.0833 16.9142 11.4191 17.25 11.8333 17.25C12.2475 17.25 12.5833 16.9142 12.5833 16.5H11.0833ZM12.5833 11.5C12.5833 11.0858 12.2475 10.75 11.8333 10.75C11.4191 10.75 11.0833 11.0858 11.0833 11.5H12.5833ZM12.5833 1.5C12.5833 1.08579 12.2475 0.75 11.8333 0.75C11.4191 0.75 11.0833 1.08579 11.0833 1.5H12.5833ZM2.75 6.5C2.75 6.91421 3.08579 7.25 3.5 7.25C3.91421 7.25 4.25 6.91421 4.25 6.5L2.75 6.5ZM4.25 1.5C4.25 1.08579 3.91421 0.75 3.5 0.75C3.08579 0.75 2.75 1.08579 2.75 1.5L4.25 1.5ZM5.87313 12.9711L6.56604 13.2582L6.56604 13.2582L5.87313 12.9711ZM4.97114 13.8731L4.68413 13.1802L4.68413 13.1802L4.97114 13.8731ZM4.97114 9.12687L5.25815 8.43396L5.25815 8.43396L4.97114 9.12687ZM5.87313 10.0289L5.18022 10.3159L5.18022 10.3159L5.87313 10.0289ZM1.12687 10.0289L0.433958 9.74185L0.433958 9.74185L1.12687 10.0289ZM2.02886 9.12687L2.31587 9.81978L2.31587 9.81978L2.02886 9.12687ZM1.12687 12.9711L1.81978 12.6841L1.81978 12.6841L1.12687 12.9711ZM2.02886 13.8731L1.74185 14.566L1.74185 14.566L2.02886 13.8731ZM14.2065 7.97114L14.8994 8.25815L14.8994 8.25815L14.2065 7.97114ZM13.3045 8.87313L13.0175 8.18022L13.0175 8.18022L13.3045 8.87313ZM13.3045 4.12687L13.5915 3.43396L13.5915 3.43396L13.3045 4.12687ZM14.2065 5.02886L13.5136 5.31587L13.5136 5.31587L14.2065 5.02886ZM9.4602 5.02886L8.76729 4.74185L8.76729 4.74185L9.4602 5.02886ZM10.3622 4.12687L10.6492 4.81978L10.6492 4.81978L10.3622 4.12687ZM9.4602 7.97114L10.1531 7.68413L10.1531 7.68413L9.4602 7.97114ZM10.3622 8.87313L10.0752 9.56604L10.0752 9.56604L10.3622 8.87313ZM4.25 16.5V14H2.75V16.5H4.25ZM12.5833 16.5V11.5H11.0833V16.5H12.5833ZM12.5833 4V1.5H11.0833V4H12.5833ZM4.25 6.5L4.25 1.5L2.75 1.5L2.75 6.5L4.25 6.5ZM5.25 11.5C5.25 11.8985 5.24959 12.1599 5.23588 12.3609C5.22263 12.5551 5.19949 12.6376 5.18022 12.6841L6.56604 13.2582C6.67364 12.9984 6.71394 12.7336 6.7324 12.463C6.75041 12.1991 6.75 11.878 6.75 11.5L5.25 11.5ZM3.5 14.75C3.87802 14.75 4.1991 14.7504 4.46298 14.7324C4.73359 14.7139 4.99839 14.6736 5.25815 14.566L4.68413 13.1802C4.6376 13.1995 4.55511 13.2226 4.36087 13.2359C4.15989 13.2496 3.89855 13.25 3.5 13.25L3.5 14.75ZM5.18022 12.6841C5.08719 12.9087 4.90874 13.0872 4.68413 13.1802L5.25815 14.566C5.8503 14.3208 6.32077 13.8503 6.56604 13.2582L5.18022 12.6841ZM3.5 9.75C3.89855 9.75 4.15989 9.75041 4.36087 9.76412C4.55511 9.77737 4.6376 9.80051 4.68413 9.81978L5.25815 8.43396C4.99839 8.32636 4.73359 8.28606 4.46298 8.2676C4.1991 8.24959 3.87802 8.25 3.5 8.25L3.5 9.75ZM6.75 11.5C6.75 11.122 6.75041 10.8009 6.7324 10.537C6.71394 10.2664 6.67364 10.0016 6.56604 9.74185L5.18022 10.3159C5.19949 10.3624 5.22263 10.4449 5.23588 10.6391C5.24959 10.8401 5.25 11.1015 5.25 11.5L6.75 11.5ZM4.68413 9.81978C4.90874 9.91281 5.08719 10.0913 5.18022 10.3159L6.56604 9.74185C6.32077 9.1497 5.8503 8.67923 5.25815 8.43396L4.68413 9.81978ZM1.75 11.5C1.75 11.1015 1.75041 10.8401 1.76412 10.6391C1.77737 10.4449 1.80051 10.3624 1.81978 10.3159L0.433958 9.74185C0.326361 10.0016 0.286062 10.2664 0.267598 10.537C0.249594 10.8009 0.25 11.122 0.25 11.5L1.75 11.5ZM3.5 8.25C3.12198 8.25 2.8009 8.24959 2.53702 8.2676C2.26641 8.28606 2.00161 8.32636 1.74185 8.43396L2.31587 9.81978C2.3624 9.80051 2.44489 9.77737 2.63913 9.76412C2.84011 9.75041 3.10145 9.75 3.5 9.75L3.5 8.25ZM1.81978 10.3159C1.91281 10.0913 2.09126 9.91281 2.31587 9.81978L1.74185 8.43396C1.1497 8.67923 0.679235 9.1497 0.433958 9.74185L1.81978 10.3159ZM0.25 11.5C0.25 11.878 0.249594 12.1991 0.267598 12.463C0.286062 12.7336 0.326362 12.9984 0.433958 13.2582L1.81978 12.6841C1.80051 12.6376 1.77737 12.5551 1.76412 12.3609C1.75041 12.1599 1.75 11.8985 1.75 11.5L0.25 11.5ZM3.5 13.25C3.10145 13.25 2.84011 13.2496 2.63913 13.2359C2.44489 13.2226 2.3624 13.1995 2.31587 13.1802L1.74185 14.566C2.00161 14.6736 2.26641 14.7139 2.53702 14.7324C2.8009 14.7504 3.12198 14.75 3.5 14.75L3.5 13.25ZM0.433958 13.2582C0.679235 13.8503 1.1497 14.3208 1.74185 14.566L2.31587 13.1802C2.09126 13.0872 1.91281 12.9087 1.81978 12.6841L0.433958 13.2582ZM13.5833 6.5C13.5833 6.89855 13.5829 7.15989 13.5692 7.36087C13.556 7.55511 13.5328 7.6376 13.5136 7.68413L14.8994 8.25815C15.007 7.99839 15.0473 7.73359 15.0657 7.46298C15.0837 7.1991 15.0833 6.87802 15.0833 6.5L13.5833 6.5ZM11.8333 9.75C12.2114 9.75 12.5324 9.75041 12.7963 9.7324C13.0669 9.71394 13.3317 9.67364 13.5915 9.56604L13.0175 8.18022C12.9709 8.19949 12.8884 8.22263 12.6942 8.23588C12.4932 8.24959 12.2319 8.25 11.8333 8.25L11.8333 9.75ZM13.5136 7.68413C13.4205 7.90874 13.2421 8.08719 13.0175 8.18022L13.5915 9.56604C14.1836 9.32077 14.6541 8.8503 14.8994 8.25815L13.5136 7.68413ZM11.8333 4.75C12.2319 4.75 12.4932 4.75041 12.6942 4.76412C12.8884 4.77737 12.9709 4.80051 13.0175 4.81978L13.5915 3.43396C13.3317 3.32636 13.0669 3.28606 12.7963 3.2676C12.5324 3.24959 12.2114 3.25 11.8333 3.25L11.8333 4.75ZM15.0833 6.5C15.0833 6.12198 15.0837 5.8009 15.0657 5.53702C15.0473 5.26641 15.007 5.00161 14.8994 4.74185L13.5136 5.31587C13.5328 5.3624 13.556 5.44489 13.5692 5.63913C13.5829 5.84011 13.5833 6.10145 13.5833 6.5L15.0833 6.5ZM13.0175 4.81978C13.2421 4.91281 13.4205 5.09126 13.5136 5.31587L14.8994 4.74185C14.6541 4.1497 14.1836 3.67923 13.5915 3.43396L13.0175 4.81978ZM10.0833 6.5C10.0833 6.10145 10.0837 5.84011 10.0975 5.63913C10.1107 5.44489 10.1338 5.3624 10.1531 5.31587L8.76729 4.74185C8.65969 5.00161 8.61939 5.26641 8.60093 5.53702C8.58293 5.8009 8.58333 6.12198 8.58333 6.5L10.0833 6.5ZM11.8333 3.25C11.4553 3.25 11.1342 3.24959 10.8704 3.2676C10.5997 3.28606 10.3349 3.32636 10.0752 3.43396L10.6492 4.81978C10.6957 4.80051 10.7782 4.77737 10.9725 4.76412C11.1734 4.75041 11.4348 4.75 11.8333 4.75L11.8333 3.25ZM10.1531 5.31587C10.2461 5.09126 10.4246 4.91281 10.6492 4.81978L10.0752 3.43396C9.48303 3.67923 9.01257 4.1497 8.76729 4.74185L10.1531 5.31587ZM8.58333 6.5C8.58333 6.87802 8.58293 7.1991 8.60093 7.46298C8.61939 7.73359 8.65969 7.99839 8.76729 8.25815L10.1531 7.68413C10.1338 7.6376 10.1107 7.55511 10.0975 7.36087C10.0837 7.15989 10.0833 6.89855 10.0833 6.5L8.58333 6.5ZM11.8333 8.25C11.4348 8.25 11.1734 8.24959 10.9725 8.23588C10.7782 8.22263 10.6957 8.19949 10.6492 8.18022L10.0752 9.56604C10.3349 9.67364 10.5997 9.71394 10.8704 9.7324C11.1342 9.75041 11.4553 9.75 11.8333 9.75L11.8333 8.25ZM8.76729 8.25815C9.01257 8.8503 9.48303 9.32077 10.0752 9.56604L10.6492 8.18022C10.4246 8.08719 10.2461 7.90874 10.1531 7.68413L8.76729 8.25815Z" fill="#D5D5D5"/>
</svg>
