<svg width="30" height="30" viewBox="0 0 30 30" fill="none" xmlns="http://www.w3.org/2000/svg">
    <path fill-rule="evenodd" clip-rule="evenodd" d="M14.9999 28.2036C7.70779 28.2036 1.79639 22.2922 1.79639 15.0001C1.79639 7.70803 7.70779 1.79663 14.9999 1.79663C22.292 1.79663 28.2034 7.70803 28.2034 15.0001C28.2034 22.2922 22.292 28.2036 14.9999 28.2036ZM0.296387 15.0001C0.296387 23.1206 6.87936 29.7036 14.9999 29.7036C23.1204 29.7036 29.7034 23.1206 29.7034 15.0001C29.7034 6.87961 23.1204 0.296631 14.9999 0.296631C6.87936 0.296631 0.296387 6.87961 0.296387 15.0001ZM14.5731 14.3695C14.4458 14.3561 14.2621 14.3548 13.9425 14.3548C13.5282 14.3548 13.1925 14.019 13.1925 13.6048C13.1925 13.1906 13.5282 12.8548 13.9425 12.8548L13.9822 12.8548C14.2764 12.8547 14.5672 12.8546 14.8079 12.887C15.0811 12.9237 15.399 13.014 15.6638 13.2788C15.9285 13.5435 16.0189 13.8615 16.0556 14.1346C16.0879 14.3754 16.0879 14.6662 16.0878 14.9604V14.9604L16.0878 15.0001V21.9769C16.0878 22.3911 15.752 22.7269 15.3378 22.7269C14.9236 22.7269 14.5878 22.3911 14.5878 21.9769V15.0001C14.5878 14.6805 14.5865 14.4967 14.5731 14.3695ZM14.9873 8.41872C14.4351 8.41872 13.9873 8.86644 13.9873 9.41872C13.9873 9.97101 14.4351 10.4187 14.9873 10.4187H14.9999C15.5522 10.4187 15.9999 9.97101 15.9999 9.41872C15.9999 8.86644 15.5522 8.41872 14.9999 8.41872H14.9873Z" fill="#86B5FB"/>
</svg>

