<svg width="30" height="30" viewBox="0 0 30 30" fill="none" xmlns="http://www.w3.org/2000/svg">
<path d="M2.5 15.625C2.5 14.2443 3.61929 13.125 5 13.125C7.07107 13.125 8.75 14.8039 8.75 16.875V21.875C8.75 23.9461 7.07107 25.625 5 25.625C3.61929 25.625 2.5 24.5057 2.5 23.125V15.625Z" stroke="#5B7FFF" stroke-width="1.5" stroke-linecap="round" stroke-linejoin="round"/>
<path d="M19.3484 9.75782L19.0156 10.8329C18.7428 11.7139 18.6064 12.1544 18.7113 12.5022C18.7961 12.7837 18.9824 13.0263 19.2363 13.1859C19.55 13.3832 20.0246 13.3832 20.9739 13.3832H21.4789C24.6915 13.3832 26.2977 13.3832 27.0564 14.3341C27.1432 14.4428 27.2203 14.5584 27.287 14.6796C27.8706 15.7402 27.2071 17.1689 25.88 20.0264C24.6621 22.6486 24.0532 23.9597 22.9225 24.7314C22.8131 24.8062 22.7006 24.8766 22.5854 24.9427C21.3951 25.625 19.9202 25.625 16.9705 25.625H16.3307C12.7571 25.625 10.9703 25.625 9.86017 24.5493C8.75 23.4737 8.75 21.7424 8.75 18.2799V17.0629C8.75 15.2433 8.75 14.3335 9.07293 13.5007C9.39585 12.668 10.0142 11.9833 11.2509 10.6139L16.3651 4.9507C16.4934 4.80867 16.5575 4.73765 16.6141 4.68844C17.1419 4.2291 17.9565 4.2808 18.418 4.80293C18.4674 4.85887 18.5215 4.93739 18.6295 5.09442C18.7985 5.34006 18.883 5.46288 18.9567 5.58457C19.616 6.67391 19.8155 7.96796 19.5135 9.19644C19.4798 9.33365 19.436 9.47512 19.3484 9.75782Z" stroke="#5B7FFF" stroke-width="1.5" stroke-linecap="round" stroke-linejoin="round"/>
</svg>
