<svg width="18" height="19" viewBox="0 0 18 19" fill="none" xmlns="http://www.w3.org/2000/svg">
<path d="M10.2133 16.5072C9.88804 16.8117 9.45329 16.9819 9.00084 16.9819C8.54839 16.9819 8.11364 16.8117 7.78837 16.5072C4.80977 13.7014 0.818072 10.5671 2.7647 6.01668C3.81723 3.5563 6.34376 1.98193 9.00084 1.98193C11.6579 1.98193 14.1845 3.5563 15.237 6.01668C17.1811 10.5614 13.1993 13.7111 10.2133 16.5072Z" stroke="#032465" stroke-width="1.5"/>
<path d="M11.625 8.73193C11.625 10.1817 10.4497 11.3569 9 11.3569C7.55025 11.3569 6.375 10.1817 6.375 8.73193C6.375 7.28219 7.55025 6.10693 9 6.10693C10.4497 6.10693 11.625 7.28219 11.625 8.73193Z" stroke="#032465" stroke-width="1.5"/>
</svg>
