<svg width="220" height="48" viewBox="0 0 220 48" fill="none" xmlns="http://www.w3.org/2000/svg">
    <g clip-path="url(#clip0_1427_5129)">
        <path d="M52.5889 33.4845V14.13C52.5889 11.1376 53.3326 8.83536 54.8113 7.21512C56.2987 5.59487 58.4681 4.78906 61.3276 4.78906C64.1872 4.78906 66.401 5.59487 67.9768 7.21512C69.544 8.82674 70.3317 11.1285 70.3317 14.121V16.5366C70.3317 17.2055 69.7862 17.7514 69.1169 17.7514H65.7027C65.0338 17.7514 64.4879 17.2059 64.4879 16.5366V13.7582C64.4879 11.3235 63.4875 10.1014 61.4777 10.1014C59.4503 10.1014 58.4318 11.3231 58.4318 13.7668V33.874C58.4318 36.3001 59.4503 37.5131 61.4777 37.5131C63.4875 37.5131 64.4879 36.3001 64.4879 33.874V29.7497C64.4879 29.0809 65.0334 28.5349 65.7027 28.5349H69.1169C69.7857 28.5349 70.3317 29.0804 70.3317 29.7497V33.4845C70.3317 36.4774 69.544 38.7883 67.9768 40.3994C66.4006 42.0197 64.1872 42.8255 61.3276 42.8255C58.4676 42.8255 56.2982 42.0197 54.8113 40.3994C53.3326 38.7792 52.5889 36.4769 52.5889 33.4845ZM73.555 41.1857V6.42835C73.555 5.75948 74.1005 5.21351 74.7698 5.21351H77.5468C78.2157 5.21351 78.7617 5.75903 78.7617 6.42835V23.9921C78.7617 24.2995 78.987 24.5557 79.2922 24.5943C79.5974 24.6333 79.8799 24.4419 79.957 24.1444L80.8794 20.5856C80.8843 20.5657 80.8893 20.5489 80.8957 20.5289L85.4022 6.06648C85.5628 5.55043 86.0217 5.21305 86.5618 5.21305H91.4656C92.1344 5.21305 92.6804 5.75858 92.6804 6.42789V41.1853C92.6804 41.8542 92.1349 42.4001 91.4656 42.4001H88.0514C87.3825 42.4001 86.8366 41.8546 86.8366 41.1853V20.9824C86.8366 20.6749 86.6112 20.4192 86.3065 20.3802C86.0013 20.3412 85.7188 20.5321 85.6417 20.83L84.4681 25.3488C84.4649 25.3602 84.4627 25.3697 84.4595 25.381L79.7947 41.5227C79.6423 42.0505 79.177 42.4001 78.6279 42.4001H74.7707C74.1018 42.4001 73.555 41.8551 73.555 41.1857ZM96.2832 41.1857V6.42835C96.2832 5.75948 96.8287 5.21351 97.4981 5.21351H111.431C112.1 5.21351 112.646 5.75903 112.646 6.42835V9.3115C112.646 9.98036 112.1 10.5263 111.431 10.5263H103.342C102.673 10.5263 102.127 11.0719 102.127 11.7412V18.8212C102.127 19.49 102.673 20.036 103.342 20.036H105.527C108.431 20.036 110.627 20.8151 112.115 22.3823C113.602 23.9494 114.346 26.2249 114.346 29.2174V33.2192C114.346 36.2117 113.602 38.4872 112.115 40.0543C110.627 41.6215 108.432 42.4006 105.519 42.4006H97.4985C96.8296 42.4006 96.2832 41.8551 96.2832 41.1857ZM103.341 37.0882H105.518C106.509 37.0882 107.253 36.8225 107.749 36.2824C108.253 35.7423 108.501 34.8481 108.501 33.582V28.8541C108.501 27.5881 108.253 26.6938 107.749 26.1537C107.253 25.6137 106.509 25.3479 105.518 25.3479H103.341C102.673 25.3479 102.127 25.8935 102.127 26.5628V35.8738C102.127 36.5427 102.672 37.0882 103.341 37.0882ZM117.772 33.4845V14.13C117.772 11.1376 118.515 8.83536 119.994 7.21512C121.482 5.59487 123.651 4.78906 126.51 4.78906C129.37 4.78906 131.584 5.59487 133.16 7.21512C134.727 8.82674 135.515 11.1285 135.515 14.121V16.5366C135.515 17.2055 134.969 17.7514 134.3 17.7514H130.886C130.217 17.7514 129.671 17.2059 129.671 16.5366V13.7582C129.671 11.3235 128.671 10.1014 126.661 10.1014C124.633 10.1014 123.615 11.3231 123.615 13.7668V33.874C123.615 36.3001 124.633 37.5131 126.661 37.5131C128.67 37.5131 129.671 36.3001 129.671 33.874V29.7497C129.671 29.0809 130.217 28.5349 130.886 28.5349H134.3C134.969 28.5349 135.515 29.0804 135.515 29.7497V33.4845C135.515 36.4774 134.727 38.7883 133.16 40.3994C131.584 42.0197 129.37 42.8255 126.51 42.8255C123.651 42.8255 121.482 42.0197 119.994 40.3994C118.515 38.7792 117.772 36.4769 117.772 33.4845ZM138.738 41.1857V6.42835C138.738 5.75948 139.283 5.21351 139.953 5.21351H147.556C150.549 5.21351 152.736 5.91321 154.126 7.3117C155.516 8.71065 156.215 10.8624 156.215 13.7664V15.0946C156.215 18.0426 155.458 20.207 153.939 21.5869C153.661 21.839 153.525 22.1682 153.542 22.5428C153.56 22.9173 153.726 23.2321 154.026 23.4574C155.876 24.8469 156.799 27.2067 156.799 30.5451V33.582C156.799 36.4506 156.047 38.6377 154.542 40.1428C153.037 41.6478 150.832 42.4006 147.928 42.4006H139.952C139.283 42.4006 138.738 41.8551 138.738 41.1857ZM145.796 37.0882H147.928C148.947 37.0882 149.708 36.8139 150.204 36.2561C150.708 35.707 150.956 34.7597 150.956 33.4319V30.1824C150.956 28.4914 150.664 27.3137 150.089 26.6494C149.514 25.9941 148.549 25.6667 147.203 25.6667H145.796C145.128 25.6667 144.582 26.2122 144.582 26.8816V35.8738C144.582 36.5427 145.127 37.0882 145.796 37.0882ZM145.796 20.3543H146.866C148.026 20.3543 148.902 20.0532 149.487 19.4601C150.08 18.867 150.372 17.8576 150.372 16.4409V14.36C150.372 13.0317 150.142 12.0582 149.673 11.4469C149.203 10.8361 148.451 10.5259 147.415 10.5259H145.796C145.128 10.5259 144.582 11.0714 144.582 11.7407V19.1395C144.582 19.8084 145.127 20.3543 145.796 20.3543ZM159.674 41.0003C159.806 40.1496 159.872 39.1116 159.872 37.8854V32.1572C159.872 30.103 160.165 28.412 160.757 27.0929C161.111 26.3129 161.605 25.6581 162.245 25.1325C162.529 24.8985 162.681 24.5838 162.688 24.2156C162.694 23.847 162.553 23.5273 162.277 23.2837C160.71 21.8998 159.925 19.7045 159.925 16.6985V13.7677C159.925 10.8637 160.616 8.71201 161.997 7.31306C163.387 5.91412 165.574 5.21487 168.576 5.21487H176.188C176.857 5.21487 177.403 5.76039 177.403 6.42971V41.1871C177.403 41.856 176.858 42.4019 176.188 42.4019H172.774C172.105 42.4019 171.559 41.8564 171.559 41.1871V28.4764C171.559 27.8075 171.014 27.2616 170.344 27.2616H169.531C168.203 27.2616 167.229 27.6243 166.627 28.3503C166.017 29.0763 165.715 30.2984 165.715 32.0071V37.8419C165.715 38.7892 165.689 39.5682 165.627 40.1881C165.565 40.7989 165.512 41.2152 165.459 41.4279C165.431 41.5676 165.382 41.7458 165.316 41.9671C165.238 42.2292 165.007 42.4015 164.734 42.4015H160.875C160.507 42.4015 160.191 42.2559 159.952 41.9771C159.713 41.6982 159.618 41.3631 159.674 41.0003ZM165.769 18.0081C165.769 19.4424 166.061 20.4605 166.654 21.054C167.238 21.6472 168.115 21.9483 169.275 21.9483H170.344C171.013 21.9483 171.559 21.4028 171.559 20.7334V11.7412C171.559 11.0723 171.014 10.5263 170.344 10.5263H168.752C167.717 10.5263 166.955 10.8361 166.477 11.4473C166.008 12.0582 165.769 13.0322 165.769 14.3604L165.769 18.0081ZM181.325 33.5203V30.6535C181.325 29.9846 181.871 29.4387 182.54 29.4387H185.954C186.623 29.4387 187.169 29.9842 187.169 30.6535V33.8659C187.169 36.3005 188.169 37.5136 190.161 37.5136C191.153 37.5136 191.906 37.2038 192.411 36.584C192.915 35.9555 193.172 34.8662 193.172 33.3167V30.386C193.172 28.695 192.88 27.482 192.287 26.756C191.694 26.0299 190.737 25.6672 189.401 25.6672H189.181C188.512 25.6672 187.966 25.1217 187.966 24.4523V21.5696C187.966 20.9008 188.512 20.3548 189.181 20.3548H189.711C190.853 20.3548 191.721 20.0537 192.305 19.4606C192.88 18.8584 193.173 17.858 193.173 16.4323V14.3604C193.173 12.7669 192.916 11.66 192.411 11.0401C191.906 10.4116 191.154 10.1014 190.162 10.1014C188.134 10.1014 187.116 11.3231 187.116 13.7582V15.5802C187.116 16.2491 186.571 16.7951 185.902 16.7951H182.647C181.978 16.7951 181.432 16.2496 181.432 15.5802V14.0235C181.432 11.031 182.202 8.74648 183.734 7.16161C185.274 5.57674 187.47 4.78906 190.312 4.78906C193.154 4.78906 195.314 5.59487 196.793 7.21512C198.272 8.82674 199.015 11.1376 199.015 14.13V15.0864C199.015 18.2063 198.181 20.4482 196.508 21.8122C196.218 22.0494 196.063 22.3709 196.061 22.7459C196.059 23.121 196.209 23.4447 196.497 23.6851C198.177 25.0904 199.015 27.3786 199.015 30.5542V33.485C199.015 36.4778 198.272 38.7796 196.793 40.3999C195.314 42.0201 193.154 42.8259 190.312 42.8259C187.47 42.8259 185.256 42.0201 183.681 40.4085C182.113 38.7973 181.325 36.5041 181.325 33.5203ZM202.681 41.1862V6.4288C202.681 5.75994 203.226 5.21396 203.896 5.21396H207.31C207.979 5.21396 208.525 5.75948 208.525 6.4288V17.9709C208.525 18.6398 209.07 19.1858 209.739 19.1858H211.296C214.183 19.1858 216.352 19.9648 217.813 21.532C219.274 23.0992 220 25.3747 220 28.3671V33.2192C220 36.2117 219.274 38.4872 217.813 40.0543C216.352 41.6215 214.174 42.4006 211.287 42.4006H203.896C203.227 42.4006 202.681 41.8555 202.681 41.1862ZM209.739 37.0887H211.304C212.269 37.0887 212.987 36.8229 213.456 36.3005C213.925 35.7691 214.155 34.8662 214.155 33.5825V28.0043C214.155 26.7206 213.925 25.8177 213.456 25.2863C212.987 24.7639 212.269 24.4981 211.304 24.4981H209.739C209.07 24.4981 208.524 25.0437 208.524 25.713V35.8738C208.524 36.5427 209.07 37.0887 209.739 37.0887Z" fill="#5B7FFF"/>
        <path fill-rule="evenodd" clip-rule="evenodd" d="M23.5123 0.294678C36.4978 0.294678 47.0251 10.8215 47.0251 23.8074C47.0251 36.7929 36.4983 47.3197 23.5123 47.3197C10.5268 47.3197 0 36.7929 0 23.8074C0 10.8219 10.5268 0.294678 23.5123 0.294678ZM23.5123 2.63956C35.2027 2.63956 44.6802 12.117 44.6802 23.8074C44.6802 35.4978 35.2027 44.9753 23.5123 44.9753C11.8219 44.9753 2.34443 35.4978 2.34443 23.8074C2.34443 12.117 11.8219 2.63956 23.5123 2.63956Z" fill="#5B7FFF"/>
        <path d="M20.4586 32.9528L25.3402 30.8478C25.5941 30.7435 25.8599 30.6252 26.1328 30.4973C26.3968 30.3739 26.7242 30.2229 27.0008 30.1585C27.1985 30.5703 27.3672 31.1176 27.5454 31.5829L28.6156 34.4506C28.797 34.9268 29.0468 35.451 29.1607 35.9384L21.0068 33.1678C20.8731 33.1238 20.8395 33.1174 20.7193 33.0743L20.4586 32.9528ZM19.5694 31.3652C19.6006 30.9879 21.3143 26.8763 21.3479 26.4746C21.6236 26.539 22.0684 26.8773 22.3128 27.0342C22.6525 27.2518 22.9477 27.4182 23.291 27.6436L25.2223 28.8244C25.0518 29.0571 24.1376 29.3672 23.8524 29.487L19.5694 31.3652ZM23.0624 21.9653H23.9517L25.8571 27.0464C25.6531 26.992 25.5524 26.8831 25.3751 26.7662L23.0357 25.2946C22.6851 25.0811 22.3908 24.8788 22.0462 24.6965L23.0624 21.9653ZM23.2941 14.5588C24.8423 14.3502 26.2163 15.7242 26.3074 17.1354C26.4144 18.7833 25.2382 20.014 23.7299 20.155C20.2895 20.477 19.334 15.093 23.2941 14.5588ZM18.8706 17.2016C18.8706 18.669 19.3585 19.829 20.3461 20.7432C20.5275 20.911 21.0531 21.3318 21.2839 21.3935C21.2603 21.6778 16.6209 33.9123 16.3665 34.5771L14.7422 38.9867C14.7422 39.5521 14.8732 40.0664 15.6314 40.0664C16.3252 40.0664 16.4817 39.5444 16.6717 39.0102C16.869 38.4543 17.0608 37.9945 17.2594 37.4385L18.1486 35.0886C18.2548 34.7907 18.3545 34.5944 18.4266 34.2869C18.7758 34.2946 19.7988 34.6914 20.1811 34.8188L28.9616 37.7881C30.2086 38.2035 29.9642 37.9332 30.2798 38.8202C30.5582 39.6029 30.6294 40.0668 31.5105 40.0668C31.9254 40.0668 32.2488 39.6619 32.3136 39.2796C32.3721 38.9331 31.2276 36.0926 31.0652 35.685L29.2799 30.9281C28.9969 30.1463 28.6795 29.3754 28.3907 28.5782L26.6008 23.8263C26.482 23.522 25.7547 21.6814 25.7306 21.3939C26.4866 20.994 26.9391 20.5473 27.4085 19.8326C29.2464 17.0343 27.5155 12.9213 23.5571 12.7132C21.2626 12.5926 18.8706 14.7007 18.8706 17.2016Z" fill="#5B7FFF"/>
        <path d="M14.5519 27.1735C15.3921 27.1735 15.8234 26.2865 15.2715 25.6281C14.77 25.0299 14.0131 24.2473 13.6422 23.5734L12.9008 22.1554C12.348 21.0444 11.8836 19.2346 11.8836 18.0275C11.8836 16.5025 11.8505 15.7266 12.2909 14.1794C12.8105 12.3519 13.6644 10.8536 14.9173 9.50184C15.4234 8.95587 15.5041 8.86246 15.5041 8.31013C15.5041 7.82265 15.0597 7.54785 14.4879 7.54785C14.0363 7.54785 13.357 8.41216 13.0627 8.79035C12.4069 9.63426 12.168 9.99386 11.6324 10.9167C10.3645 13.1015 9.75462 16.4925 10.1246 19.0242C10.4883 21.5128 11.1608 23.4038 12.6818 25.4222C13.0459 25.9051 13.9868 27.1735 14.5519 27.1735Z" fill="#5B7FFF"/>
        <path d="M31.5098 8.43661C31.5098 9.06739 32.1809 9.50181 32.8253 10.3602C33.3486 11.0577 33.5939 11.4671 34.0084 12.2893C34.8455 13.9503 35.4028 16.5378 35.0776 18.7371C34.2805 24.1329 31.5098 25.2947 31.5098 26.1568C31.5098 26.5114 31.5148 26.6474 31.7428 26.876C32.5673 27.7017 33.3985 26.618 33.8868 25.9931C34.0365 25.8017 34.1367 25.7069 34.2868 25.5042C37.2774 21.4611 37.9018 16.0159 35.6585 11.5284C34.928 10.0673 34.9747 10.1426 33.9245 8.75313C33.7807 8.56268 33.6583 8.4806 33.5055 8.28289C33.1196 7.78362 32.755 7.57729 32.4457 7.54736H32.2893C31.8186 7.59362 31.5098 8.05661 31.5098 8.43661Z" fill="#5B7FFF"/>
        <path d="M28.3344 11.5486C28.3344 11.8058 28.5 12.1137 28.6346 12.2642C28.8265 12.4783 28.9221 12.5594 29.1167 12.7984C31.3505 15.5505 31.2983 19.3052 28.9249 22.1104L28.4619 22.6636C27.9377 23.654 29.2618 24.6938 30.176 23.4885C30.5796 22.9565 31.2267 22.319 31.5926 21.4751C31.7477 21.1177 31.8969 20.8393 32.0107 20.496C32.2184 19.8693 32.4687 19.0232 32.5227 18.2767C32.7149 15.6217 31.9105 12.9553 30.1615 11.1813C29.8064 10.8208 29.2899 10.3433 28.6541 10.9152C28.5172 11.038 28.3344 11.3011 28.3344 11.5486Z" fill="#5B7FFF"/>
        <path d="M18.6803 23.1085C18.6803 22.7811 18.5175 22.5997 18.3475 22.4251C17.2941 21.3449 16.5345 19.8462 16.3468 18.3285C16.1599 16.818 16.4062 15.3691 17.0705 14.0672C17.7113 12.812 18.6803 12.1278 18.6803 11.6122C18.6803 11.1079 18.2318 10.6594 17.7276 10.6594C17.173 10.6594 16.5653 11.4852 16.2479 11.911C14.4399 14.3348 13.9779 17.388 14.9877 20.4493C15.2766 21.3254 15.8711 22.343 16.4474 23.055L17.1086 23.7909C17.7693 24.3319 18.6803 23.8853 18.6803 23.1085Z" fill="#5B7FFF"/>
    </g>
    <defs>
        <clipPath id="clip0_1427_5129">
            <rect width="220" height="47.0251" fill="white" transform="translate(0 0.294678)"/>
        </clipPath>
    </defs>
</svg>
