<svg width="220" height="20" viewBox="0 0 220 20" fill="none" xmlns="http://www.w3.org/2000/svg">
<path fill-rule="evenodd" clip-rule="evenodd" d="M7.26554 0.0034129C7.92058 -0.000505778 9.86732 -0.175839 10.6919 2.60718C11.2474 4.48186 12.1322 7.55266 13.3464 11.8196H13.8408C15.1429 7.3211 16.0374 4.25029 16.5242 2.60718C17.3574 -0.204829 19.4404 0.00346801 20.2736 0.00346801L26.7018 0.00347603V20H20.15V8.2157H19.7106L16.0583 20H11.1289L7.47655 8.20697H7.0372V20H0.485352V0.00347603L7.26554 0.0034129ZM36.1102 0.00347603V11.7965H36.6328L41.0756 2.09918C41.938 0.169386 43.776 0.00347603 43.776 0.00347603H50.1163V20H43.4276V8.20697H42.9049L38.5493 17.9043C37.6869 19.8254 35.7617 20 35.7617 20H29.4215V0.00347603H36.1102ZM73.2353 9.50596C72.3023 12.1499 69.3723 14.0433 66.1284 14.0433H59.114V20H52.7535V9.50596H73.2353Z" fill="#0F754E"/>
<path fill-rule="evenodd" clip-rule="evenodd" d="M66.4352 0.00292969H52.4199C52.7535 4.45483 56.5873 8.26595 60.5562 8.26595H73.6773C74.4345 4.5659 71.8278 0.00292969 66.4352 0.00292969Z" fill="url(#paint0_linear_1314_14122)"/>
<g clip-path="url(#clip0_1314_14122)">
<path d="M98.4795 2.13867H107.132V17.8609H98.4795V2.13867Z" fill="#FF5F00"/>
<path d="M99.0288 10C99.0288 6.80555 100.512 3.97222 102.792 2.13889C101.116 0.805559 99.0014 0 96.6941 0C91.228 0 86.8057 4.47222 86.8057 10C86.8057 15.5278 91.228 20 96.6941 20C99.0014 20 101.116 19.1944 102.792 17.8611C100.512 16.0556 99.0288 13.1944 99.0288 10Z" fill="#EB001B"/>
<path d="M118.806 10C118.806 15.5278 114.383 20 108.917 20C106.61 20 104.495 19.1944 102.819 17.8611C105.127 16.0278 106.582 13.1944 106.582 10C106.582 6.80555 105.099 3.97222 102.819 2.13889C104.495 0.805559 106.61 0 108.917 0C114.383 0 118.806 4.5 118.806 10Z" fill="#F79E1B"/>
</g>
<g clip-path="url(#clip1_1314_14122)">
<path d="M158.584 19.7111H153.578L156.709 0.350586H161.715L158.584 19.7111Z" fill="#00579F"/>
<path d="M176.732 0.824255C175.744 0.432522 174.178 0 172.242 0C167.298 0 163.817 2.63619 163.795 6.40515C163.754 9.18588 166.288 10.7304 168.183 11.6575C170.119 12.605 170.778 13.2234 170.778 14.0679C170.758 15.3649 169.213 15.9628 167.772 15.9628C165.773 15.9628 164.702 15.6545 163.075 14.9329L162.415 14.6236L161.715 18.9696C162.889 19.5045 165.052 19.9792 167.298 20C172.551 20 175.97 17.4046 176.011 13.3882C176.031 11.1842 174.693 9.49549 171.809 8.11552C170.058 7.22968 168.986 6.63236 168.986 5.72598C169.006 4.902 169.893 4.05804 171.869 4.05804C173.496 4.0167 174.692 4.40789 175.598 4.79934L176.051 5.00493L176.732 0.824255Z" fill="#00579F"/>
<path d="M183.385 12.8524C183.797 11.7401 185.383 7.43545 185.383 7.43545C185.363 7.47679 185.795 6.30268 186.042 5.5819L186.392 7.25012C186.392 7.25012 187.34 11.8844 187.546 12.8524C186.763 12.8524 184.374 12.8524 183.385 12.8524ZM189.564 0.350586H185.692C184.498 0.350586 183.591 0.700435 183.075 1.95694L175.64 19.7108H180.892C180.892 19.7108 181.757 17.3213 181.943 16.8067C182.519 16.8067 187.629 16.8067 188.37 16.8067C188.514 17.4864 188.968 19.7108 188.968 19.7108H193.603L189.564 0.350586Z" fill="#00579F"/>
<path d="M149.398 0.350586L144.495 13.5526L143.959 10.8751C143.053 7.78557 140.21 4.42888 137.038 2.75984L141.529 19.6906H146.822L154.691 0.350586H149.398Z" fill="#00579F"/>
<path d="M139.942 0.350586H131.888L131.806 0.741771C138.088 2.3484 142.249 6.2211 143.959 10.8759L142.208 1.97802C141.92 0.741497 141.034 0.391374 139.942 0.350586Z" fill="#FAA61A"/>
</g>
<path d="M213.076 -0.000228882C214.448 -0.000228882 214.879 0.975988 215.24 1.95068C215.392 2.36457 218.957 12.0503 219.065 12.341C219.093 12.4221 219.074 12.5552 218.948 12.6034C218.822 12.6508 216.969 13.3654 216.867 13.4036C216.764 13.4427 216.649 13.386 216.612 13.2843C216.574 13.1841 215.805 11.0725 215.719 10.8369H210.435C210.351 11.0725 209.573 13.1887 209.539 13.2843C209.503 13.3815 209.393 13.4473 209.283 13.4036C209.174 13.3608 207.315 12.6462 207.203 12.6034C207.097 12.5621 207.048 12.442 207.085 12.341C207.217 11.9783 210.728 2.44797 210.907 1.95068C211.255 0.990524 211.701 -0.000228882 213.076 -0.000228882ZM206.803 17.3307C206.692 17.3307 206.604 17.4225 206.604 17.5342V19.798C206.604 19.9097 206.692 20 206.803 20H219.343C219.456 20 219.545 19.9097 219.545 19.798V17.5342C219.545 17.4225 219.456 17.3307 219.343 17.3307H206.803ZM213.064 3.16253L211.278 8.48353H214.879L213.087 3.16253H213.064Z" fill="#EE2A23"/>
<defs>
<linearGradient id="paint0_linear_1314_14122" x1="2191.02" y1="519.783" x2="52.4199" y2="519.783" gradientUnits="userSpaceOnUse">
<stop stop-color="#1F5CD7"/>
<stop offset="1" stop-color="#02AEFF"/>
</linearGradient>
<clipPath id="clip0_1314_14122">
<rect width="32" height="20" fill="white" transform="translate(86.8057)"/>
</clipPath>
<clipPath id="clip1_1314_14122">
<rect width="61.7974" height="20" fill="white" transform="translate(131.806)"/>
</clipPath>
</defs>
</svg>
