<svg width="18" height="18" viewBox="0 0 18 18" fill="none" xmlns="http://www.w3.org/2000/svg">
<path d="M2.83322 8.94749C2.1222 7.7077 1.77889 6.69533 1.57188 5.66913C1.26572 4.15141 1.96636 2.66883 3.12704 1.72283C3.61759 1.32301 4.17992 1.45961 4.47 1.98002L5.12489 3.1549C5.64397 4.08615 5.90351 4.55177 5.85203 5.04542C5.80055 5.53906 5.45053 5.94112 4.75048 6.74523L2.83322 8.94749ZM2.83322 8.94749C4.27238 11.4569 6.53088 13.7167 9.04323 15.1575M9.04323 15.1575C10.283 15.8685 11.2954 16.2118 12.3216 16.4188C13.8393 16.725 15.3219 16.0244 16.2679 14.8637C16.6677 14.3731 16.5311 13.8108 16.0107 13.5207L14.8358 12.8658C13.9046 12.3468 13.439 12.0872 12.9453 12.1387C12.4517 12.1902 12.0496 12.5402 11.2455 13.2402L9.04323 15.1575Z" stroke="#032465" stroke-width="1.5" stroke-linejoin="round"/>
</svg>
