<svg width="14" height="15" viewBox="0 0 14 15" fill="none" xmlns="http://www.w3.org/2000/svg">
<path d="M8.15143 1.7961L9.32464 4.1619C9.48462 4.49123 9.91124 4.80711 10.2712 4.8676L12.3976 5.22382C13.7575 5.45233 14.0774 6.44704 13.0976 7.42831L11.4444 9.09512C11.1644 9.3774 11.0111 9.92181 11.0978 10.3116L11.5711 12.375C11.9443 14.0082 11.0844 14.64 9.65127 13.7864L7.65815 12.5968C7.29819 12.3817 6.70493 12.3817 6.3383 12.5968L4.34519 13.7864C2.91868 14.64 2.05211 14.0015 2.4254 12.375L2.89868 10.3116C2.98534 9.92181 2.83202 9.3774 2.55205 9.09512L0.8989 7.42831C-0.0743256 6.44704 0.238973 5.45233 1.59882 5.22382L3.72525 4.8676C4.07855 4.80711 4.50517 4.49123 4.66515 4.1619L5.83836 1.7961C6.47828 0.512384 7.51817 0.512384 8.15143 1.7961Z" fill="#D5D5D5"/>
</svg>
