<svg width="25" height="24" viewBox="0 0 25 24" fill="none" xmlns="http://www.w3.org/2000/svg">
<path d="M13.932 3.44418L15.6918 6.99288C15.9318 7.48687 16.5717 7.9607 17.1116 8.05143L20.3013 8.58575C22.3411 8.92853 22.821 10.4206 21.3512 11.8925L18.8714 14.3927C18.4515 14.8161 18.2215 15.6327 18.3515 16.2175L19.0614 19.3125C19.6214 21.7623 18.3315 22.71 16.1817 21.4296L13.1921 19.6452C12.6521 19.3226 11.7622 19.3226 11.2123 19.6452L8.22261 21.4296C6.08285 22.71 4.78299 21.7522 5.34293 19.3125L6.05285 16.2175C6.18284 15.6327 5.95286 14.8161 5.53291 14.3927L3.05318 11.8925C1.59335 10.4206 2.06329 8.92853 4.10307 8.58575L7.29272 8.05143C7.82266 7.9607 8.46259 7.48687 8.70256 6.99288L10.4624 3.44418C11.4223 1.51861 12.9821 1.51861 13.932 3.44418Z" fill="#010217"/>
</svg>
