<svg width="16" height="16" viewBox="0 0 16 16" fill="none" xmlns="http://www.w3.org/2000/svg">
<path d="M9.15143 2.29628L10.3246 4.66208C10.4846 4.99141 10.9112 5.3073 11.2712 5.36779L13.3976 5.724C14.7575 5.95251 15.0774 6.94722 14.0976 7.92849L12.4444 9.5953C12.1644 9.87759 12.0111 10.422 12.0978 10.8118L12.5711 12.8752C12.9443 14.5084 12.0844 15.1401 10.6513 14.2866L8.65815 13.097C8.29819 12.8819 7.70493 12.8819 7.3383 13.097L5.34519 14.2866C3.91868 15.1401 3.05211 14.5016 3.4254 12.8752L3.89868 10.8118C3.98534 10.422 3.83202 9.87759 3.55205 9.5953L1.8989 7.92849C0.925674 6.94722 1.23897 5.95251 2.59882 5.724L4.72525 5.36779C5.07855 5.3073 5.50517 4.99141 5.66515 4.66208L6.83836 2.29628C7.47828 1.01257 8.51817 1.01257 9.15143 2.29628Z" fill="#FFC581"/>
</svg>
