<svg width="28" height="27" viewBox="0 0 28 27" fill="none" xmlns="http://www.w3.org/2000/svg">
<g clip-path="url(#clip0_191_9492)">
<rect x="0.75" width="27" height="27" rx="13.5" fill="white"/>
<path d="M20.9838 9.62136C20.0433 9.62134 19.1413 9.24771 18.4763 8.58268C17.8113 7.91764 17.4377 7.01568 17.4377 6.0752H14.9042V15.9959C14.9038 16.4482 14.7609 16.8889 14.496 17.2555C14.2311 17.6221 13.8575 17.8961 13.4282 18.0385C12.9989 18.1809 12.5357 18.1846 12.1041 18.0491C11.6726 17.9135 11.2947 17.6456 11.024 17.2832C10.7532 16.9209 10.6034 16.4826 10.5957 16.0303C10.588 15.5781 10.7229 15.1349 10.9811 14.7635C11.2394 14.3922 11.608 14.1116 12.0346 13.9614C12.4613 13.8113 12.9244 13.7992 13.3583 13.927V11.4642C12.4362 11.3399 11.4981 11.4998 10.6693 11.9226C9.84047 12.3455 9.16038 13.0111 8.71983 13.8307C8.27928 14.6502 8.09924 15.5847 8.20374 16.5092C8.30825 17.4338 8.69233 18.3044 9.3047 19.005C9.91706 19.7055 10.7286 20.2025 11.6309 20.4297C12.5332 20.6569 13.4833 20.6034 14.3544 20.2764C15.2254 19.9493 15.976 19.3644 16.5059 18.5995C17.0358 17.8347 17.3197 16.9264 17.3197 15.9959L17.3936 10.9813C18.4346 11.7455 19.6927 12.1566 20.984 12.1547L20.9838 9.62136Z" fill="#032465"/>
</g>
<defs>
<clipPath id="clip0_191_9492">
<rect width="27" height="27" fill="white" transform="translate(0.75)"/>
</clipPath>
</defs>
</svg>
