<svg width="27" height="27" viewBox="0 0 27 27" fill="none" xmlns="http://www.w3.org/2000/svg">
<g clip-path="url(#clip0_1409_37177)">
<rect width="27" height="27" rx="13.5" fill="#EDEDED"/>
<path d="M20.2338 9.62124C19.2933 9.62121 18.3913 9.24759 17.7263 8.58255C17.0613 7.91752 16.6877 7.01555 16.6877 6.07507H14.1542V15.9958C14.1538 16.4481 14.0109 16.8888 13.746 17.2554C13.4811 17.622 13.1075 17.8959 12.6782 18.0384C12.2489 18.1808 11.7857 18.1845 11.3541 18.0489C10.9226 17.9134 10.5447 17.6454 10.274 17.2831C10.0032 16.9208 9.85341 16.4824 9.84572 16.0302C9.83803 15.5779 9.97287 15.1347 10.2311 14.7634C10.4894 14.3921 10.858 14.1115 11.2846 13.9613C11.7113 13.8112 12.1744 13.7991 12.6083 13.9269V11.4641C11.6862 11.3397 10.7481 11.4997 9.91929 11.9225C9.09047 12.3454 8.41038 13.011 7.96983 13.8305C7.52928 14.6501 7.34924 15.5845 7.45374 16.5091C7.55825 17.4336 7.94233 18.3043 8.5547 19.0049C9.16706 19.7054 9.97858 20.2024 10.8809 20.4296C11.7832 20.6568 12.7333 20.6033 13.6044 20.2762C14.4754 19.9492 15.226 19.3642 15.7559 18.5994C16.2858 17.8345 16.5697 16.9263 16.5697 15.9958L16.6436 10.9812C17.6846 11.7454 18.9427 12.1565 20.234 12.1546L20.2338 9.62124Z" fill="#032465"/>
</g>
<defs>
<clipPath id="clip0_1409_37177">
<rect width="27" height="27" fill="white"/>
</clipPath>
</defs>
</svg>
