<svg width="26" height="26" viewBox="0 0 26 26" fill="none" xmlns="http://www.w3.org/2000/svg">
<rect x="0.100098" width="25.65" height="25.65" rx="12.825" fill="white"/>
<path d="M13.5549 17.3134C8.73489 17.3134 5.98565 13.9435 5.87109 8.33594H8.28549C8.3648 12.4517 10.1448 14.1951 11.5546 14.5546V8.33594H13.828V11.8856C15.2203 11.7328 16.683 10.1153 17.1765 8.33594H19.4499C19.2639 9.25875 18.8933 10.1325 18.3611 10.9025C17.8289 11.6726 17.1467 12.3224 16.357 12.8112C17.2384 13.2579 18.017 13.8901 18.6413 14.6662C19.2655 15.4423 19.7213 16.3445 19.9786 17.3134H17.4761C17.2451 16.4719 16.7758 15.7185 16.1269 15.1478C15.4779 14.5771 14.6782 14.2145 13.828 14.1053V17.3134H13.5549Z" fill="#032465"/>
</svg>
