<svg width="26" height="26" viewBox="0 0 26 26" fill="none" xmlns="http://www.w3.org/2000/svg">
<rect width="26" height="26" rx="13" fill="#EDEDED"/>
<path d="M13.6387 17.55C8.75297 17.55 5.96621 14.134 5.8501 8.44995H8.29744C8.37783 12.6219 10.1821 14.3891 11.6112 14.7535V8.44995H13.9156V12.048C15.3269 11.8932 16.8096 10.2536 17.3097 8.44995H19.6142C19.4257 9.38535 19.05 10.271 18.5105 11.0516C17.9711 11.8321 17.2795 12.4908 16.4791 12.9863C17.3726 13.4391 18.1617 14.0799 18.7945 14.8666C19.4273 15.6532 19.8893 16.5678 20.1501 17.55H17.6134C17.3794 16.6969 16.9036 15.9333 16.2458 15.3548C15.588 14.7763 14.7774 14.4087 13.9156 14.298V17.55H13.6387Z" fill="#032465"/>
</svg>
