<svg width="26" height="26" viewBox="0 0 26 26" fill="none" xmlns="http://www.w3.org/2000/svg">
<rect width="25.65" height="25.65" rx="12.825" fill="white"/>
<path d="M17.9082 7.73482C16.6413 6.47236 14.9522 5.771 13.1692 5.771C9.46244 5.771 6.45952 8.7635 6.45952 12.4574C6.45952 13.6263 6.78796 14.7953 7.35101 15.7772L6.4126 19.2372L9.97857 18.3021C10.9639 18.8164 12.0431 19.097 13.1692 19.097C16.8759 19.097 19.8788 16.1045 19.8788 12.4106C19.8319 10.6806 19.175 8.99728 17.9082 7.73482ZM16.4067 14.842C16.266 15.2161 15.6091 15.5901 15.2806 15.6369C14.9991 15.6837 14.6237 15.6837 14.2484 15.5901C14.0138 15.4966 13.6853 15.4031 13.3099 15.2161C11.6208 14.5147 10.5416 12.8314 10.4478 12.6912C10.3539 12.5976 9.74397 11.8028 9.74397 10.9611C9.74397 10.1195 10.1663 9.74541 10.307 9.55838C10.4478 9.37135 10.6355 9.37135 10.7762 9.37135C10.8701 9.37135 11.0108 9.37135 11.1047 9.37135C11.1985 9.37135 11.3393 9.32459 11.48 9.65189C11.6208 9.9792 11.9492 10.8208 11.9962 10.8676C12.0431 10.9611 12.0431 11.0546 11.9962 11.1481C11.9492 11.2417 11.9023 11.3352 11.8085 11.4287C11.7146 11.5222 11.6208 11.6625 11.5739 11.7092C11.48 11.8028 11.3862 11.8963 11.48 12.0365C11.5739 12.2236 11.9023 12.7379 12.4185 13.2055C13.0753 13.7666 13.5915 13.9536 13.7792 14.0471C13.9668 14.1406 14.0607 14.0939 14.1545 14.0004C14.2484 13.9069 14.5768 13.5328 14.6706 13.3458C14.7645 13.1587 14.9052 13.2055 15.046 13.2522C15.1868 13.299 16.0313 13.7198 16.1721 13.8133C16.3598 13.9069 16.4536 13.9536 16.5006 14.0004C16.5475 14.1406 16.5475 14.4679 16.4067 14.842Z" fill="#032465"/>
</svg>
