<svg width="26" height="26" viewBox="0 0 26 26" fill="none" xmlns="http://www.w3.org/2000/svg">
<rect width="26" height="26" rx="13" fill="#EDEDED"/>
<path fill-rule="evenodd" clip-rule="evenodd" d="M7.32072 17.5869C7.06574 17.5115 6.8331 17.3773 6.64242 17.1957C6.45174 17.014 6.30861 16.7903 6.22511 16.5433C5.748 15.2668 5.60663 9.9365 6.52552 8.88425C6.83134 8.54194 7.26313 8.33119 7.72715 8.29774C10.1923 8.03899 17.8085 8.07349 18.6832 8.38399C18.9292 8.46191 19.154 8.59317 19.3406 8.76793C19.5273 8.94269 19.6711 9.15643 19.7611 9.39313C20.2824 10.7128 20.3001 15.5083 19.6904 16.7762C19.5287 17.1062 19.2579 17.3735 18.9217 17.5352C18.0028 17.9837 8.54001 17.9751 7.32072 17.5869ZM11.2348 15.0857L15.6526 12.8431L11.2348 10.5834V15.0857Z" fill="#032465"/>
</svg>
