<svg width="26" height="26" viewBox="0 0 26 26" fill="none" xmlns="http://www.w3.org/2000/svg">
<rect x="0.200195" width="25.65" height="25.65" rx="12.825" fill="white"/>
<path fill-rule="evenodd" clip-rule="evenodd" d="M7.42201 17.3502C7.17047 17.2758 6.94096 17.1434 6.75285 16.9642C6.56473 16.785 6.42353 16.5643 6.34116 16.3206C5.87046 15.0613 5.731 9.80274 6.63752 8.76465C6.93923 8.42695 7.3652 8.21904 7.82297 8.18604C10.2549 7.93077 17.7686 7.96481 18.6315 8.27113C18.8742 8.348 19.096 8.47749 19.2801 8.6499C19.4643 8.82231 19.6061 9.03317 19.6949 9.26668C20.2092 10.5685 20.2266 15.2995 19.6252 16.5503C19.4657 16.8759 19.1986 17.1397 18.8669 17.2991C17.9603 17.7416 8.6249 17.7331 7.42201 17.3502V17.3502ZM11.2835 14.8826L15.6417 12.6703L11.2835 10.4409V14.8826Z" fill="#032465"/>
</svg>
